<svg width="20" height="16" viewBox="0 0 20 16" fill="none" xmlns="http://www.w3.org/2000/svg">
<path fill-rule="evenodd" clip-rule="evenodd" d="M2.99995 1.07495C1.80623 1.07495 0.824951 2.0122 0.824951 3.17852V12.8214C0.824951 13.9877 1.80623 14.9249 2.99995 14.9249H17C18.1937 14.9249 19.1749 13.9877 19.1749 12.8214V3.17852C19.1749 2.0122 18.1937 1.07495 17 1.07495H2.99995ZM2.17495 3.17852C2.17495 2.75076 2.54055 2.38924 2.99995 2.38924H17C17.4594 2.38924 17.825 2.75076 17.825 3.17852V12.8214C17.825 13.2491 17.4594 13.6107 17 13.6107H2.99995C2.54055 13.6107 2.17495 13.2491 2.17495 12.8214V3.17852ZM7.49995 3.96781C6.0281 3.96781 4.82495 5.11901 4.82495 6.55352C4.82495 7.98804 6.0281 9.13924 7.49995 9.13924C8.9718 9.13924 10.175 7.98804 10.175 6.55352C10.175 5.11901 8.9718 3.96781 7.49995 3.96781ZM6.17495 6.55352C6.17495 5.85757 6.76242 5.28209 7.49995 5.28209C8.23748 5.28209 8.82495 5.85757 8.82495 6.55352C8.82495 7.24948 8.23748 7.82495 7.49995 7.82495C6.76242 7.82495 6.17495 7.24948 6.17495 6.55352ZM12.25 4.93209C12.0219 4.93209 11.825 5.11298 11.825 5.34817V5.83031C11.825 6.06549 12.0219 6.24638 12.25 6.24638H15.75C15.978 6.24638 16.175 6.06549 16.175 5.83031V5.34817C16.175 5.11298 15.978 4.93209 15.75 4.93209H12.25ZM12.25 6.86066C12.0219 6.86066 11.825 7.04155 11.825 7.27674V7.75888C11.825 7.99406 12.0219 8.17495 12.25 8.17495H15.75C15.978 8.17495 16.175 7.99406 16.175 7.75888V7.27674C16.175 7.04155 15.978 6.86066 15.75 6.86066H12.25ZM12.25 8.78924C12.0219 8.78924 11.825 8.97012 11.825 9.20531V9.68745C11.825 9.92263 12.0219 10.1035 12.25 10.1035H15.75C15.978 10.1035 16.175 9.92263 16.175 9.68745V9.20531C16.175 8.97012 15.978 8.78924 15.75 8.78924H12.25ZM6.03745 9.27138C5.32796 9.27138 4.62566 9.57482 4.21248 10.1722C3.96795 10.5227 3.82495 10.9461 3.82495 11.4021V12.0982C3.82495 12.3333 4.02185 12.5142 4.24995 12.5142H4.74995C4.97805 12.5142 5.17495 12.3333 5.17495 12.0982V11.4021C5.17495 11.2279 5.22904 11.0579 5.33084 10.9118C5.46667 10.7176 5.72611 10.5887 6.04058 10.5887C6.17501 10.5887 6.28753 10.6174 6.44769 10.6582L6.44789 10.6582C6.4859 10.6679 6.52658 10.6783 6.57088 10.6891C6.7963 10.7443 7.07937 10.7996 7.50308 10.7996C7.92529 10.7996 8.20761 10.7442 8.43293 10.6891C8.47644 10.6785 8.5165 10.6683 8.554 10.6588L8.55401 10.6587C8.71539 10.6177 8.82926 10.5887 8.96558 10.5887C9.27871 10.5887 9.53903 10.7197 9.67554 10.9121C9.7772 11.0581 9.8312 11.228 9.8312 11.4021V12.0982C9.8312 12.3333 10.0281 12.5142 10.2562 12.5142H10.7562C10.9843 12.5142 11.1812 12.3333 11.1812 12.0982V11.4021C11.1812 10.9459 11.0381 10.5225 10.7935 10.1719L10.7927 10.1709C10.3707 9.57528 9.66959 9.27138 8.96245 9.27138C8.64564 9.27138 8.43972 9.32527 8.24337 9.37667L8.22097 9.38252C8.0251 9.43367 7.82834 9.48232 7.49995 9.48232C7.17156 9.48232 6.9748 9.43367 6.77893 9.38252L6.75654 9.37667C6.56018 9.32527 6.35426 9.27138 6.03745 9.27138Z" fill="#4F4F4F"/>
</svg>
