<svg width="24" height="20" viewBox="0 0 24 20" fill="none" xmlns="http://www.w3.org/2000/svg">
<path d="M17.0313 6.4881L16.0513 3.60633C15.8617 3.04487 15.328 2.66675 14.7242 2.66675H5.54258C4.93883 2.66675 4.40508 3.04487 4.2155 3.60633L2.73966 7.95477C2.693 8.09513 2.66675 8.24123 2.66675 8.39019V15.9584C2.66675 16.7175 3.29383 17.3334 4.06675 17.3334H15.7334C18.8251 17.3334 21.3334 14.8699 21.3334 11.8334C21.3334 9.23524 19.4959 7.06388 17.0313 6.4881ZM10.8334 4.04175H14.7242L15.5059 6.34487C14.0534 6.40216 12.7438 6.99513 11.7813 7.93758H10.8334V4.04175ZM5.54258 4.04175H9.43342V7.93758H4.22133L5.54258 4.04175ZM4.06675 15.9584V9.31258H10.7605C10.3638 10.0688 10.1334 10.9253 10.1334 11.8334C10.1334 13.4777 10.8713 14.9501 12.038 15.9584H4.06675ZM15.7334 15.9584C13.4176 15.9584 11.5334 14.1079 11.5334 11.8334C11.5334 9.55894 13.4176 7.70842 15.7334 7.70842C18.0492 7.70842 19.9334 9.55894 19.9334 11.8334C19.9334 14.1079 18.0492 15.9584 15.7334 15.9584ZM17.6176 10.066C17.5272 9.97716 17.3813 9.97716 17.2909 10.066L15.2522 12.0511L14.3684 11.1746C14.278 11.0858 14.1322 11.0858 14.0417 11.1746L13.4963 11.7074C13.4059 11.7962 13.4059 11.9394 13.4963 12.0282L15.083 13.6009C15.1734 13.6897 15.3192 13.6897 15.4097 13.6009L18.1572 10.9225C18.2476 10.8337 18.2476 10.6904 18.1572 10.6016L17.6176 10.066Z" fill="#4F4F4F"/>
</svg>
