<svg width="24" height="22" viewBox="0 0 24 22" fill="none" xmlns="http://www.w3.org/2000/svg">
<path d="M11.4034 8C11.2964 8 11.1938 8.04556 11.1182 8.12665C11.0425 8.20774 11 8.31772 11 8.4324V12.203L13.3803 13.9326C13.4696 13.9934 13.5777 14.0142 13.6812 13.9904C13.7846 13.9666 13.8753 13.9002 13.9335 13.8054C13.9917 13.7107 14.0129 13.5953 13.9924 13.484C13.9719 13.3727 13.9114 13.2744 13.824 13.2105L11.8069 11.7446V8.4324C11.8069 8.31772 11.7644 8.20774 11.6887 8.12665C11.613 8.04556 11.5104 8 11.4034 8Z" fill="#4F4F4F"/>
<path fill-rule="evenodd" clip-rule="evenodd" d="M10.8 12.3049V8.43245C10.8 8.26903 10.8605 8.10975 10.972 7.99026C11.0839 7.8703 11.2388 7.80005 11.4035 7.80005C11.5682 7.80005 11.7231 7.8703 11.835 7.99026C11.9465 8.10975 12.0069 8.26903 12.0069 8.43245V11.6428L13.9417 13.0487C14.0723 13.1443 14.1599 13.2888 14.1891 13.4478C14.2184 13.6068 14.1885 13.7726 14.1039 13.9102C14.0191 14.0482 13.8844 14.1489 13.726 14.1854C13.5671 14.2219 13.4022 14.1895 13.2678 14.098L13.2627 14.0945L10.8 12.3049ZM11.8069 11.7447V8.43245C11.8069 8.31777 11.7644 8.20779 11.6888 8.1267C11.6131 8.04561 11.5105 8.00005 11.4035 8.00005C11.2965 8.00005 11.1939 8.04561 11.1182 8.1267C11.0426 8.20779 11 8.31777 11 8.43245V12.203L13.3803 13.9326C13.4697 13.9935 13.5777 14.0142 13.6812 13.9904C13.7847 13.9667 13.8753 13.9002 13.9335 13.8055C13.9917 13.7108 14.0129 13.5953 13.9924 13.484C13.972 13.3727 13.9115 13.2745 13.8241 13.2105L11.8069 11.7447Z" fill="#4F4F4F"/>
<path d="M11.9994 4C10.7497 4.00438 9.52366 4.34143 8.44731 4.97653C7.37095 5.61164 6.48308 6.52188 5.87493 7.61375V5.4C5.87493 5.28397 5.82884 5.17269 5.7468 5.09064C5.66476 5.00859 5.55349 4.9625 5.43746 4.9625C5.32144 4.9625 5.21017 5.00859 5.12813 5.09064C5.04609 5.17269 5 5.28397 5 5.4V9.25H8.84967C8.9657 9.25 9.07697 9.20391 9.15901 9.12186C9.24105 9.03981 9.28714 8.92853 9.28714 8.8125C9.28714 8.69647 9.24105 8.58519 9.15901 8.50314C9.07697 8.42109 8.9657 8.375 8.84967 8.375H6.4655C7.01724 7.21046 7.9222 6.24962 9.05158 5.62922C10.181 5.00882 11.4772 4.76046 12.7559 4.91949C14.0346 5.07852 15.2306 5.63684 16.1736 6.51499C17.1167 7.39314 17.7588 8.54638 18.0085 9.8106C18.2582 11.0748 18.1029 12.3856 17.5646 13.5564C17.0263 14.7272 16.1325 15.6984 15.0103 16.3318C13.8881 16.9652 12.5948 17.2284 11.3144 17.0842C10.0339 16.9399 8.8316 16.3954 7.87851 15.5281C7.83599 15.4893 7.78626 15.4593 7.73215 15.4398C7.67803 15.4202 7.62059 15.4115 7.56311 15.4141C7.50563 15.4168 7.44923 15.4307 7.39714 15.4551C7.34505 15.4796 7.29827 15.514 7.2595 15.5566C7.22072 15.5991 7.19069 15.6488 7.17114 15.7029C7.15158 15.7571 7.14287 15.8145 7.14551 15.872C7.14815 15.9295 7.16209 15.9859 7.18653 16.038C7.21096 16.0901 7.24542 16.1368 7.28793 16.1756C8.1288 16.9414 9.14359 17.4907 10.2445 17.7761C11.3454 18.0615 12.4992 18.0742 13.6062 17.8133C14.7131 17.5524 15.7398 17.0257 16.5975 16.2788C17.4551 15.5318 18.1178 14.5871 18.5282 13.5264C18.9387 12.4657 19.0845 11.3209 18.9531 10.1911C18.8217 9.0614 18.417 7.98069 17.774 7.04253C17.1311 6.10437 16.2692 5.33703 15.2631 4.80689C14.2569 4.27676 13.1367 3.99981 11.9994 4Z" fill="#4F4F4F"/>
<path fill-rule="evenodd" clip-rule="evenodd" d="M7.28798 16.1757C7.24547 16.1369 7.21101 16.0901 7.18657 16.038C7.16214 15.9859 7.1482 15.9295 7.14556 15.872C7.14292 15.8145 7.15163 15.7571 7.17119 15.703C7.19074 15.6489 7.22077 15.5991 7.25955 15.5566C7.29832 15.5141 7.34509 15.4796 7.39719 15.4552C7.44928 15.4308 7.50568 15.4168 7.56316 15.4142C7.62064 15.4115 7.67808 15.4202 7.73219 15.4398C7.78631 15.4594 7.83604 15.4894 7.87856 15.5282C8.83165 16.3954 10.034 16.9399 11.3144 17.0842C12.5948 17.2285 13.8882 16.9652 15.0103 16.3319C16.1325 15.6985 17.0263 14.7273 17.5646 13.5565C18.1029 12.3856 18.2583 11.0749 18.0085 9.81064C17.7588 8.54643 17.1167 7.39318 16.1737 6.51503C15.2306 5.63688 14.0347 5.07857 12.756 4.91954C11.4773 4.76051 10.181 5.00886 9.05163 5.62927C7.98757 6.21378 7.12273 7.1005 6.56481 8.17505C6.53056 8.24102 6.49746 8.30769 6.46555 8.37505H8.84972C8.96575 8.37505 9.07702 8.42114 9.15906 8.50319C9.2411 8.58524 9.28719 8.69652 9.28719 8.81255C9.28719 8.92858 9.2411 9.03986 9.15906 9.12191C9.07702 9.20395 8.96575 9.25005 8.84972 9.25005H5.00005V5.40005C5.00005 5.28402 5.04614 5.17274 5.12818 5.09069C5.21022 5.00864 5.32149 4.96255 5.43751 4.96255C5.55353 4.96255 5.6648 5.00864 5.74684 5.09069C5.82889 5.17274 5.87497 5.28402 5.87497 5.40005V7.6138C5.93861 7.49954 6.00532 7.38728 6.07497 7.27711C6.67101 6.33445 7.48363 5.54523 8.44736 4.97658C9.52371 4.34148 10.7497 4.00442 11.9995 4.00005C13.1367 3.99986 14.2569 4.27681 15.2631 4.80694C16.2693 5.33707 17.1311 6.10442 17.7741 7.04258C18.4171 7.98073 18.8217 9.06145 18.9532 10.1912C19.0846 11.3209 18.9387 12.4657 18.5283 13.5264C18.1178 14.5871 17.4551 15.5318 16.5975 16.2788C15.7399 17.0258 14.7132 17.5525 13.6062 17.8134C12.4993 18.0743 11.3454 18.0615 10.2445 17.7762C9.14364 17.4908 8.12885 16.9415 7.28798 16.1757ZM6.07497 6.91499C6.66901 6.05799 7.44289 5.33705 8.34572 4.80433C9.45266 4.15118 10.7135 3.80455 11.9988 3.80005C13.1685 3.79985 14.3214 4.08472 15.3563 4.63C16.3913 5.17528 17.2777 5.96455 17.9391 6.92951C18.6004 7.89447 19.0167 9.00606 19.1518 10.1681C19.287 11.3301 19.137 12.5076 18.7148 13.5986C18.2926 14.6896 17.611 15.6613 16.7289 16.4296C15.8467 17.1979 14.7907 17.7397 13.6521 18.0081C12.5135 18.2764 11.3267 18.2633 10.1944 17.9698C9.062 17.6762 8.01821 17.1112 7.15332 16.3235C7.0914 16.2671 7.04109 16.1988 7.0055 16.1229C6.96991 16.0471 6.94962 15.9649 6.94577 15.8812C6.94193 15.7975 6.95461 15.7138 6.98309 15.635C7.01157 15.5562 7.0553 15.4838 7.11178 15.4218C7.16825 15.3599 7.23637 15.3097 7.31225 15.2741C7.38812 15.2385 7.47026 15.2182 7.55398 15.2144C7.6377 15.2105 7.72136 15.2232 7.80018 15.2517C7.87891 15.2802 7.95128 15.3238 8.01316 15.3802C8.93513 16.2192 10.0982 16.7459 11.3368 16.8855C12.5754 17.025 13.8265 16.7704 14.912 16.1577C15.9976 15.545 16.8622 14.6055 17.3829 13.4729C17.9036 12.3403 18.0539 11.0723 17.8123 9.8494C17.5707 8.62646 16.9496 7.51088 16.0374 6.6614C15.1251 5.81193 13.9682 5.27185 12.7313 5.11801C11.4944 4.96417 10.2404 5.20442 9.14793 5.80456C8.14919 6.35319 7.33189 7.17704 6.79119 8.17505H8.84972C9.01879 8.17505 9.18094 8.24222 9.30048 8.36177C9.42003 8.48133 9.48719 8.64348 9.48719 8.81255C9.48719 8.98162 9.42003 9.14377 9.30048 9.26332C9.18094 9.38288 9.01879 9.45005 8.84972 9.45005H4.80005V5.40005C4.80005 5.23098 4.86721 5.06883 4.98675 4.94927C5.1063 4.82972 5.26844 4.76255 5.43751 4.76255C5.60658 4.76255 5.76873 4.82972 5.88827 4.94927C6.00782 5.06883 6.07497 5.23098 6.07497 5.40005V6.91499Z" fill="#4F4F4F"/>
</svg>
