<svg width="24" height="22" viewBox="0 0 24 22" fill="none" xmlns="http://www.w3.org/2000/svg">
<path d="M19.7144 7.26425C19.7144 6.42178 19.6642 6.16471 19.5228 5.90255C19.4232 5.71476 19.268 5.56158 19.078 5.4635C18.8144 5.32352 18.5547 5.27388 17.7037 5.27388H6.29762C5.44654 5.27388 5.18684 5.32352 4.92201 5.4635C4.73229 5.56212 4.57754 5.71575 4.47847 5.90383C4.33705 6.16471 4.28691 6.42178 4.28691 7.26425V14.737C4.28691 15.5795 4.33705 15.8366 4.47847 16.0987C4.57809 16.2865 4.73329 16.4397 4.92329 16.5378C5.18684 16.6778 5.44654 16.7274 6.29762 16.7274H17.7037C18.5547 16.7274 18.8144 16.6778 19.0793 16.5378C19.269 16.4392 19.4237 16.2855 19.5228 16.0974C19.6642 15.8366 19.7144 15.5795 19.7144 14.737V7.26425ZM21 7.26425V14.737C21 15.8722 20.8804 16.2832 20.6567 16.6968C20.433 17.113 20.1039 17.4388 19.6848 17.6602C19.2657 17.8816 18.8492 18 17.705 18H6.29634C5.14956 18 4.7343 17.8816 4.31648 17.6602C3.90188 17.4435 3.56277 17.1082 3.34326 16.6981C3.11956 16.2832 3 15.8709 3 14.7383V7.26298C3 6.12781 3.11956 5.71675 3.34326 5.30315C3.56696 4.88701 3.89608 4.56122 4.31519 4.33979C4.7343 4.11835 5.15085 4 6.29505 4H17.7024C18.8492 4 19.2644 4.11835 19.6822 4.33979C20.1026 4.56122 20.4318 4.88701 20.6555 5.30188C20.8792 5.71675 20.9987 6.12908 20.9987 7.2617L21 7.26425Z" fill="#4F4F4F"/>
<path d="M3 7H21V8.33333H3V7ZM3 9.66667H21V11H3V9.66667ZM5.57143 13.6667H10.7143V15H5.57143V13.6667Z" fill="#4F4F4F"/>
</svg>
