<svg width="24" height="24" viewBox="0 0 24 24" fill="none" xmlns="http://www.w3.org/2000/svg">
<g filter="url(#filter0_d_19683_8031)">
<circle cx="12" cy="12" r="11.5" transform="rotate(-180 12 12)" fill="white" stroke="#F2F2F2"/>
<path d="M10.7563 16.2439C10.6111 16.0987 10.5979 15.8714 10.7167 15.7113L10.7563 15.6654L14.285 12.1365L10.7563 8.60758C10.6111 8.46235 10.5979 8.23508 10.7167 8.07492L10.7563 8.02904C10.9015 7.88381 11.1288 7.8706 11.289 7.98943L11.3348 8.02904L15.153 11.8472C15.2983 11.9925 15.3115 12.2197 15.1926 12.3799L15.153 12.4258L11.3348 16.2439C11.1751 16.4037 10.9161 16.4037 10.7563 16.2439Z" fill="#001F4C"/>
</g>
<defs>
<filter id="filter0_d_19683_8031" x="-8" y="-8" width="44" height="44" filterUnits="userSpaceOnUse" color-interpolation-filters="sRGB">
<feFlood flood-opacity="0" result="BackgroundImageFix"/>
<feColorMatrix in="SourceAlpha" type="matrix" values="0 0 0 0 0 0 0 0 0 0 0 0 0 0 0 0 0 0 127 0" result="hardAlpha"/>
<feOffset dx="2" dy="2"/>
<feGaussianBlur stdDeviation="5"/>
<feComposite in2="hardAlpha" operator="out"/>
<feColorMatrix type="matrix" values="0 0 0 0 0 0 0 0 0 0 0 0 0 0 0 0 0 0 0.1 0"/>
<feBlend mode="normal" in2="BackgroundImageFix" result="effect1_dropShadow_19683_8031"/>
<feBlend mode="normal" in="SourceGraphic" in2="effect1_dropShadow_19683_8031" result="shape"/>
</filter>
</defs>
</svg>
