<svg width="24" height="24" viewBox="0 0 24 24" fill="none" xmlns="http://www.w3.org/2000/svg">
<path fill-rule="evenodd" clip-rule="evenodd" d="M8.72734 3.81825H4.3637C4.06246 3.81825 3.81825 4.06246 3.81825 4.3637V8.72734C3.81825 9.02859 4.06246 9.27279 4.3637 9.27279H8.72734C9.02859 9.27279 9.27279 9.02859 9.27279 8.72734V4.3637C9.27279 4.06246 9.02859 3.81825 8.72734 3.81825ZM4.3637 2.18188C3.15872 2.18188 2.18188 3.15872 2.18188 4.3637V8.72734C2.18188 9.93232 3.15872 10.9092 4.3637 10.9092H8.72734C9.93232 10.9092 10.9092 9.93232 10.9092 8.72734V4.3637C10.9092 3.15872 9.93232 2.18188 8.72734 2.18188H4.3637Z" fill="#4F4F4F"/>
<path fill-rule="evenodd" clip-rule="evenodd" d="M8.72734 14.7272H4.3637C4.06246 14.7272 3.81825 14.9714 3.81825 15.2726V19.6363C3.81825 19.9375 4.06246 20.1817 4.3637 20.1817H8.72734C9.02859 20.1817 9.27279 19.9375 9.27279 19.6363V15.2726C9.27279 14.9714 9.02859 14.7272 8.72734 14.7272ZM4.3637 13.0908C3.15872 13.0908 2.18188 14.0677 2.18188 15.2726V19.6363C2.18188 20.8413 3.15872 21.8181 4.3637 21.8181H8.72734C9.93232 21.8181 10.9092 20.8413 10.9092 19.6363V15.2726C10.9092 14.0677 9.93232 13.0908 8.72734 13.0908H4.3637Z" fill="#4F4F4F"/>
<path fill-rule="evenodd" clip-rule="evenodd" d="M19.6363 3.81825H15.2726C14.9714 3.81825 14.7272 4.06246 14.7272 4.3637V8.72734C14.7272 9.02859 14.9714 9.27279 15.2726 9.27279H19.6363C19.9375 9.27279 20.1817 9.02859 20.1817 8.72734V4.3637C20.1817 4.06246 19.9375 3.81825 19.6363 3.81825ZM15.2726 2.18188C14.0677 2.18188 13.0908 3.15872 13.0908 4.3637V8.72734C13.0908 9.93232 14.0677 10.9092 15.2726 10.9092H19.6363C20.8413 10.9092 21.8181 9.93232 21.8181 8.72734V4.3637C21.8181 3.15872 20.8413 2.18188 19.6363 2.18188H15.2726Z" fill="#4F4F4F"/>
<path fill-rule="evenodd" clip-rule="evenodd" d="M19.6363 14.7272H15.2726C14.9714 14.7272 14.7272 14.9714 14.7272 15.2726V19.6363C14.7272 19.9375 14.9714 20.1817 15.2726 20.1817H19.6363C19.9375 20.1817 20.1817 19.9375 20.1817 19.6363V15.2726C20.1817 14.9714 19.9375 14.7272 19.6363 14.7272ZM15.2726 13.0908C14.0677 13.0908 13.0908 14.0677 13.0908 15.2726V19.6363C13.0908 20.8413 14.0677 21.8181 15.2726 21.8181H19.6363C20.8413 21.8181 21.8181 20.8413 21.8181 19.6363V15.2726C21.8181 14.0677 20.8413 13.0908 19.6363 13.0908H15.2726Z" fill="#4F4F4F"/>
</svg>
