<svg width="14" height="14" viewBox="0 0 14 14" fill="none" xmlns="http://www.w3.org/2000/svg">
<path fill-rule="evenodd" clip-rule="evenodd" d="M5.09089 2.22725H2.54543C2.36971 2.22725 2.22725 2.36971 2.22725 2.54543V5.09089C2.22725 5.26661 2.36971 5.40907 2.54543 5.40907H5.09089C5.26661 5.40907 5.40907 5.26661 5.40907 5.09089V2.54543C5.40907 2.36971 5.26661 2.22725 5.09089 2.22725ZM2.54543 1.27271C1.84252 1.27271 1.27271 1.84252 1.27271 2.54543V5.09089C1.27271 5.79379 1.84252 6.36361 2.54543 6.36361H5.09089C5.79379 6.36361 6.36361 5.79379 6.36361 5.09089V2.54543C6.36361 1.84252 5.79379 1.27271 5.09089 1.27271H2.54543Z" fill="#001F4C"/>
<path fill-rule="evenodd" clip-rule="evenodd" d="M5.09089 8.59102H2.54543C2.36971 8.59102 2.22725 8.73347 2.22725 8.9092V11.4547C2.22725 11.6304 2.36971 11.7728 2.54543 11.7728H5.09089C5.26661 11.7728 5.40907 11.6304 5.40907 11.4547V8.9092C5.40907 8.73347 5.26661 8.59102 5.09089 8.59102ZM2.54543 7.63647C1.84252 7.63647 1.27271 8.20629 1.27271 8.9092V11.4547C1.27271 12.1576 1.84252 12.7274 2.54543 12.7274H5.09089C5.79379 12.7274 6.36361 12.1576 6.36361 11.4547V8.9092C6.36361 8.20629 5.79379 7.63647 5.09089 7.63647H2.54543Z" fill="#001F4C"/>
<path fill-rule="evenodd" clip-rule="evenodd" d="M11.4547 2.22725H8.9092C8.73347 2.22725 8.59102 2.36971 8.59102 2.54543V5.09089C8.59102 5.26661 8.73347 5.40907 8.9092 5.40907H11.4547C11.6304 5.40907 11.7728 5.26661 11.7728 5.09089V2.54543C11.7728 2.36971 11.6304 2.22725 11.4547 2.22725ZM8.9092 1.27271C8.20629 1.27271 7.63647 1.84252 7.63647 2.54543V5.09089C7.63647 5.79379 8.20629 6.36361 8.9092 6.36361H11.4547C12.1576 6.36361 12.7274 5.79379 12.7274 5.09089V2.54543C12.7274 1.84252 12.1576 1.27271 11.4547 1.27271H8.9092Z" fill="#001F4C"/>
<path fill-rule="evenodd" clip-rule="evenodd" d="M11.4547 8.59102H8.9092C8.73347 8.59102 8.59102 8.73347 8.59102 8.9092V11.4547C8.59102 11.6304 8.73347 11.7728 8.9092 11.7728H11.4547C11.6304 11.7728 11.7728 11.6304 11.7728 11.4547V8.9092C11.7728 8.73347 11.6304 8.59102 11.4547 8.59102ZM8.9092 7.63647C8.20629 7.63647 7.63647 8.20629 7.63647 8.9092V11.4547C7.63647 12.1576 8.20629 12.7274 8.9092 12.7274H11.4547C12.1576 12.7274 12.7274 12.1576 12.7274 11.4547V8.9092C12.7274 8.20629 12.1576 7.63647 11.4547 7.63647H8.9092Z" fill="#001F4C"/>
</svg>
