<svg width="8" height="11" viewBox="0 0 8 11" fill="none" xmlns="http://www.w3.org/2000/svg">
<path d="M7.88614 4.12589C7.74872 4.24614 7.53367 4.25707 7.38214 4.15869L7.33872 4.12589L3.99968 1.20426L0.660643 4.12589C0.523221 4.24614 0.308177 4.25707 0.156643 4.15869L0.113229 4.12589C-0.0241928 4.00564 -0.0366859 3.81747 0.0757499 3.68487L0.113229 3.64688L3.72598 0.485589C3.8634 0.36534 4.07844 0.354408 4.22998 0.452794L4.27339 0.485589L7.88614 3.64688C8.0373 3.77916 8.0373 3.99362 7.88614 4.12589Z" fill="#BDBDBD"/>
<path d="M0.113373 7.03329C0.250795 6.91304 0.465838 6.90211 0.617373 7.00049L0.660787 7.03329L3.99983 9.95491L7.33887 7.03329C7.47629 6.91304 7.69133 6.90211 7.84287 7.00049L7.88628 7.03329C8.0237 7.15354 8.0362 7.34171 7.92376 7.47431L7.88628 7.51229L4.27353 10.6736C4.13611 10.7938 3.92107 10.8048 3.76954 10.7064L3.72612 10.6736L0.113373 7.51229C-0.0377911 7.38002 -0.0377911 7.16556 0.113373 7.03329Z" fill="#4F4F4F"/>
</svg>
