<svg width="7" height="11" viewBox="0 0 7 11" fill="none" xmlns="http://www.w3.org/2000/svg">
<path d="M6.90079 4.0463C6.78054 4.16655 6.59237 4.17748 6.45978 4.0791L6.42179 4.0463L3.5 1.12467L0.578214 4.0463C0.457964 4.16655 0.269794 4.17748 0.137195 4.0791L0.099206 4.0463C-0.0210433 3.92605 -0.0319753 3.73788 0.0664105 3.60528L0.099206 3.56729L3.2605 0.406004C3.38075 0.285755 3.56892 0.274823 3.70152 0.373209L3.7395 0.406004L6.90079 3.56729C7.03307 3.69957 7.03307 3.91403 6.90079 4.0463Z" fill="#BDBDBD"/>
<path d="M0.0992058 6.9537C0.219455 6.83345 0.407626 6.82252 0.540225 6.9209L0.578214 6.9537L3.5 9.87533L6.42179 6.9537C6.54204 6.83345 6.73021 6.82252 6.86281 6.9209L6.90079 6.9537C7.02104 7.07395 7.03198 7.26212 6.93359 7.39472L6.90079 7.43271L3.7395 10.594C3.61925 10.7142 3.43108 10.7252 3.29848 10.6268L3.2605 10.594L0.0992058 7.43271C-0.0330686 7.30043 -0.0330686 7.08597 0.0992058 6.9537Z" fill="#4F4F4F"/>
</svg>
