<svg width="8" height="11" viewBox="0 0 8 11" fill="none" xmlns="http://www.w3.org/2000/svg">
<path d="M7.88662 3.73942C7.74919 3.85967 7.53414 3.8706 7.3826 3.77221L7.33918 3.73942L4 0.81778L0.660816 3.73942C0.523387 3.85967 0.308336 3.8706 0.156794 3.77221L0.113379 3.73942C-0.0240498 3.61917 -0.0365429 3.431 0.0758982 3.2984L0.113379 3.26041L3.72628 0.0991144C3.86371 -0.0211351 4.07876 -0.0320671 4.2303 0.066319L4.27372 0.0991144L7.88662 3.26041C8.03779 3.39268 8.03779 3.60714 7.88662 3.73942Z" fill="#BDBDBD"/>
<path d="M0.113378 6.64681C0.250806 6.52656 0.465858 6.51563 0.6174 6.61402L0.660815 6.64681L4 9.56844L7.33918 6.64681C7.47661 6.52656 7.69166 6.51563 7.84321 6.61402L7.88662 6.64681C8.02405 6.76706 8.03654 6.95523 7.9241 7.08783L7.88662 7.12582L4.27372 10.2871C4.13629 10.4074 3.92124 10.4183 3.7697 10.3199L3.72628 10.2871L0.113378 7.12582C-0.0377927 6.99355 -0.0377927 6.77909 0.113378 6.64681Z" fill="#4F4F4F"/>
</svg>
