<svg width="7" height="11" viewBox="0 0 7 11" fill="none" xmlns="http://www.w3.org/2000/svg">
<path d="M6.90079 3.73942C6.78054 3.85967 6.59237 3.8706 6.45978 3.77221L6.42179 3.73942L3.5 0.81778L0.578214 3.73942C0.457964 3.85967 0.269794 3.8706 0.137195 3.77221L0.099206 3.73942C-0.0210433 3.61917 -0.0319753 3.431 0.0664105 3.2984L0.099206 3.26041L3.2605 0.0991144C3.38075 -0.0211351 3.56892 -0.0320671 3.70152 0.066319L3.7395 0.0991144L6.90079 3.26041C7.03307 3.39268 7.03307 3.60714 6.90079 3.73942Z" fill="#BDBDBD"/>
<path d="M0.0992058 6.64681C0.219455 6.52656 0.407626 6.51563 0.540225 6.61402L0.578214 6.64681L3.5 9.56844L6.42179 6.64681C6.54204 6.52656 6.73021 6.51563 6.86281 6.61402L6.90079 6.64681C7.02104 6.76706 7.03198 6.95523 6.93359 7.08783L6.90079 7.12582L3.7395 10.2871C3.61925 10.4074 3.43108 10.4183 3.29848 10.3199L3.2605 10.2871L0.0992058 7.12582C-0.0330686 6.99355 -0.0330686 6.77909 0.0992058 6.64681Z" fill="#4F4F4F"/>
</svg>
