<svg width="9" height="11" viewBox="0 0 9 11" fill="none" xmlns="http://www.w3.org/2000/svg">
<path d="M8.05118 3.73942C7.91375 3.85967 7.69871 3.8706 7.54717 3.77221L7.50375 3.73942L4.16467 0.81778L0.825585 3.73942C0.688161 3.85967 0.473115 3.8706 0.321579 3.77221L0.278164 3.73942C0.14074 3.61917 0.128247 3.431 0.240685 3.2984L0.278164 3.26041L3.89096 0.0991144C4.02838 -0.0211351 4.24343 -0.0320671 4.39497 0.066319L4.43838 0.0991144L8.05118 3.26041C8.20234 3.39268 8.20234 3.60714 8.05118 3.73942Z" fill="#BDBDBD"/>
<path d="M0.277437 6.64681C0.414861 6.52656 0.629907 6.51563 0.781444 6.61402L0.824858 6.64681L4.16394 9.56844L7.50303 6.64681C7.64045 6.52656 7.8555 6.51563 8.00703 6.61402L8.05045 6.64681C8.18787 6.76706 8.20037 6.95523 8.08793 7.08783L8.05045 7.12582L4.43765 10.2871C4.30023 10.4074 4.08518 10.4183 3.93365 10.3199L3.89023 10.2871L0.277437 7.12582C0.126271 6.99355 0.126271 6.77909 0.277437 6.64681Z" fill="#4F4F4F"/>
</svg>
