<svg width="9" height="11" viewBox="0 0 9 11" fill="none" xmlns="http://www.w3.org/2000/svg">
<path d="M8.05118 4.12589C7.91375 4.24614 7.69871 4.25707 7.54717 4.15869L7.50375 4.12589L4.16467 1.20426L0.825585 4.12589C0.688161 4.24614 0.473115 4.25707 0.321579 4.15869L0.278164 4.12589C0.14074 4.00564 0.128247 3.81747 0.240685 3.68487L0.278164 3.64688L3.89096 0.485589C4.02838 0.36534 4.24343 0.354408 4.39497 0.452794L4.43838 0.485589L8.05118 3.64688C8.20234 3.77916 8.20234 3.99362 8.05118 4.12589Z" fill="#BDBDBD"/>
<path d="M0.277437 7.03329C0.414861 6.91304 0.629907 6.90211 0.781444 7.00049L0.824858 7.03329L4.16394 9.95491L7.50303 7.03329C7.64045 6.91304 7.8555 6.90211 8.00703 7.00049L8.05045 7.03329C8.18787 7.15354 8.20037 7.34171 8.08793 7.47431L8.05045 7.51229L4.43765 10.6736C4.30023 10.7938 4.08518 10.8048 3.93365 10.7064L3.89023 10.6736L0.277437 7.51229C0.126271 7.38002 0.126271 7.16556 0.277437 7.03329Z" fill="#4F4F4F"/>
</svg>
