<svg width="8" height="11" viewBox="0 0 8 11" fill="none" xmlns="http://www.w3.org/2000/svg">
<path d="M7.88614 3.73942C7.74872 3.85967 7.53367 3.8706 7.38214 3.77221L7.33872 3.73942L3.99968 0.81778L0.660643 3.73942C0.523221 3.85967 0.308177 3.8706 0.156643 3.77221L0.113229 3.73942C-0.0241928 3.61917 -0.0366859 3.431 0.0757499 3.2984L0.113229 3.26041L3.72598 0.0991144C3.8634 -0.0211351 4.07844 -0.0320671 4.22998 0.066319L4.27339 0.0991144L7.88614 3.26041C8.0373 3.39268 8.0373 3.60714 7.88614 3.73942Z" fill="#BDBDBD"/>
<path d="M0.113373 6.64681C0.250795 6.52656 0.465838 6.51563 0.617373 6.61402L0.660787 6.64681L3.99983 9.56844L7.33887 6.64681C7.47629 6.52656 7.69133 6.51563 7.84287 6.61402L7.88628 6.64681C8.0237 6.76706 8.0362 6.95523 7.92376 7.08783L7.88628 7.12582L4.27353 10.2871C4.13611 10.4074 3.92107 10.4183 3.76954 10.3199L3.72612 10.2871L0.113373 7.12582C-0.0377911 6.99355 -0.0377911 6.77909 0.113373 6.64681Z" fill="#4F4F4F"/>
</svg>
