<svg width="29" height="29" viewBox="0 0 29 29" fill="none" xmlns="http://www.w3.org/2000/svg">
<path d="M14.0195 6.98021e-07C11.2467 6.9802e-07 8.53618 0.822229 6.23068 2.36271C3.92518 3.9032 2.1283 6.09277 1.0672 8.6545C0.00608856 11.2162 -0.271564 14.0351 0.269383 16.7546C0.810331 19.4741 2.14553 21.9722 4.1062 23.9329C6.06687 25.8935 8.56493 27.2287 11.2845 27.7697C14.004 28.3106 16.8229 28.033 19.3846 26.9719C21.9463 25.9108 24.1359 24.1139 25.6764 21.8084C27.2169 19.5029 28.0391 16.7924 28.0391 14.0196C28.0396 12.1783 27.6775 10.355 26.9732 8.6538C26.2688 6.95261 25.2361 5.40691 23.9341 4.10496C22.6322 2.80301 21.0864 1.77036 19.3852 1.06602C17.684 0.361674 15.8608 -0.000580408 14.0195 6.98021e-07Z" fill="#0061C1"/>
<path d="M20.8621 9.04131C22.0587 9.04131 23.0287 8.11912 23.0287 6.98157C23.0287 5.84401 22.0587 4.92188 20.8621 4.92188C19.6656 4.92188 18.6956 5.84401 18.6956 6.98157C18.6956 8.11912 19.6656 9.04131 20.8621 9.04131Z" fill="white"/>
<path d="M9.31587 10.9296C10.824 10.9296 12.0466 9.76722 12.0466 8.33343C12.0466 6.89964 10.824 5.7373 9.31587 5.7373C7.80772 5.7373 6.58521 6.89964 6.58521 8.33343C6.58521 9.76722 7.80772 10.9296 9.31587 10.9296Z" fill="white"/>
<path d="M5.81824 17.3444C7.07462 17.3444 8.09313 16.3761 8.09313 15.1817C8.09313 13.9873 7.07462 13.019 5.81824 13.019C4.56186 13.019 3.54346 13.9873 3.54346 15.1817C3.54346 16.3761 4.56186 17.3444 5.81824 17.3444Z" fill="white"/>
<path d="M13.4058 23.8711C14.6671 23.8711 15.6897 22.899 15.6897 21.6999C15.6897 20.5007 14.6671 19.5286 13.4058 19.5286C12.1444 19.5286 11.1218 20.5007 11.1218 21.6999C11.1218 22.899 12.1444 23.8711 13.4058 23.8711Z" fill="white"/>
<path d="M21.1197 21.254C22.1218 21.254 22.9341 20.4817 22.9341 19.529C22.9341 18.5763 22.1218 17.804 21.1197 17.804C20.1176 17.804 19.3052 18.5763 19.3052 19.529C19.3052 20.4817 20.1176 21.254 21.1197 21.254Z" fill="white"/>
<path d="M9.8358 8.03711L9.24561 8.90576L15.6038 12.8103L16.194 11.9416L9.8358 8.03711Z" fill="white"/>
<path d="M20.3132 6.8008L18.8608 11.3057L19.8966 11.6075L21.3489 7.10259L20.3132 6.8008Z" fill="white"/>
<path d="M15.7483 13.9074C15.747 14.1657 15.7912 14.4225 15.8792 14.6669L14.7869 14.7742L5.877 15.6968L5.76416 14.6712L14.6741 13.7486L15.7708 13.6414C15.7566 13.7294 15.749 13.8183 15.7483 13.9074Z" fill="white"/>
<path d="M16.6101 15.6838C16.8879 15.911 17.2144 16.078 17.5669 16.173L16.9891 17.0741L13.8703 21.966L12.9404 21.4382L16.0413 16.5721L16.6101 15.6838Z" fill="white"/>
<path d="M21.6114 19.3184L20.6274 19.7475L19.3681 17.1042L18.9167 16.1645C19.2683 16.0626 19.592 15.8882 19.8647 15.6538L20.316 16.6236L21.6114 19.3184Z" fill="white"/>
<path d="M20.1221 11.058C19.8123 10.8657 19.4726 10.7209 19.1155 10.6289C18.8206 10.5564 18.5174 10.5189 18.2128 10.5173C17.7195 10.5165 17.2316 10.6143 16.7806 10.8043C16.3296 10.9943 15.9256 11.2723 15.5949 11.6202C15.0366 12.2013 14.7093 12.9495 14.6695 13.7357C14.6652 13.7885 14.6652 13.8416 14.6695 13.8944C14.6716 14.1843 14.7126 14.4727 14.7914 14.7526C14.9879 15.4679 15.4294 16.1005 16.0462 16.5506C16.3298 16.7681 16.6503 16.9379 16.994 17.0527C17.3862 17.1942 17.8022 17.2669 18.2217 17.2672C18.614 17.2684 19.0035 17.2045 19.3727 17.0784C19.7198 16.9686 20.046 16.8063 20.3387 16.5978C20.8069 16.273 21.184 15.844 21.4372 15.3484C21.6904 14.8528 21.8119 14.3057 21.791 13.755C21.77 13.2044 21.6073 12.6671 21.3171 12.1901C21.0269 11.7132 20.6182 11.3112 20.1266 11.0194L20.1221 11.058ZM19.8693 15.6495C19.5966 15.8839 19.2729 16.0582 18.9214 16.1601C18.6924 16.2224 18.4555 16.2541 18.2173 16.2545C17.9978 16.2557 17.779 16.2283 17.5673 16.173C17.2147 16.0779 16.8882 15.911 16.6104 15.6838C16.2764 15.4122 16.0241 15.0613 15.8792 14.6668C15.7912 14.4224 15.747 14.1657 15.7482 13.9073C15.7415 13.8187 15.7415 13.7298 15.7482 13.6413C15.7939 13.2647 15.9349 12.9043 16.1593 12.5909C16.3836 12.2776 16.6847 12.0206 17.0364 11.8422C17.3882 11.6637 17.7804 11.5691 18.1791 11.5664C18.5778 11.5637 18.9712 11.653 19.3257 11.8267C19.6801 12.0004 19.9848 12.2532 20.2138 12.5635C20.4429 12.8738 20.5893 13.2323 20.6405 13.6082C20.6918 13.9841 20.6463 14.3662 20.5081 14.7218C20.3698 15.0773 20.1428 15.3957 19.8467 15.6495H19.8693Z" fill="white"/>
</svg>
