<svg width="6" height="11" viewBox="0 0 6 11" fill="none" xmlns="http://www.w3.org/2000/svg">
<path d="M5.28067 3.73942C5.18941 3.85967 5.0466 3.8706 4.94597 3.77221L4.91713 3.73942L2.69971 0.81778L0.48228 3.73942C0.391019 3.85967 0.248211 3.8706 0.147578 3.77221L0.118747 3.73942C0.0274863 3.61917 0.0191898 3.431 0.0938578 3.2984L0.118747 3.26041L2.51794 0.0991144C2.6092 -0.0211351 2.75201 -0.0320671 2.85264 0.066319L2.88147 0.0991144L5.28067 3.26041C5.38105 3.39268 5.38105 3.60714 5.28067 3.73942Z" fill="#BDBDBD"/>
<path d="M0.118747 6.64681C0.210008 6.52656 0.352816 6.51563 0.453449 6.61402L0.48228 6.64681L2.69971 9.56844L4.91713 6.64681C5.0084 6.52656 5.1512 6.51563 5.25184 6.61402L5.28067 6.64681C5.37193 6.76706 5.38022 6.95523 5.30556 7.08783L5.28067 7.12582L2.88147 10.2871C2.79021 10.4074 2.6474 10.4183 2.54677 10.3199L2.51794 10.2871L0.118747 7.12582C0.0183603 6.99355 0.0183603 6.77909 0.118747 6.64681Z" fill="#4F4F4F"/>
</svg>
