<svg width="14" height="18" viewBox="0 0 14 18" fill="none" xmlns="http://www.w3.org/2000/svg">
<path d="M3.58333 8C3.42862 8 3.28025 8.06321 3.17085 8.17574C3.06146 8.28826 3 8.44087 3 8.6C3 8.75913 3.06146 8.91174 3.17085 9.02426C3.28025 9.13679 3.42862 9.2 3.58333 9.2H9.41667C9.57138 9.2 9.71975 9.13679 9.82915 9.02426C9.93854 8.91174 10 8.75913 10 8.6C10 8.44087 9.93854 8.28826 9.82915 8.17574C9.71975 8.06321 9.57138 8 9.41667 8H3.58333ZM3 11C3 10.8409 3.06146 10.6883 3.17085 10.5757C3.28025 10.4632 3.42862 10.4 3.58333 10.4H9.41667C9.57138 10.4 9.71975 10.4632 9.82915 10.5757C9.93854 10.6883 10 10.8409 10 11C10 11.1591 9.93854 11.3117 9.82915 11.4243C9.71975 11.5368 9.57138 11.6 9.41667 11.6H3.58333C3.42862 11.6 3.28025 11.5368 3.17085 11.4243C3.06146 11.3117 3 11.1591 3 11ZM3 13.4C3 13.2409 3.06146 13.0883 3.17085 12.9757C3.28025 12.8632 3.42862 12.8 3.58333 12.8H5.91667C6.07138 12.8 6.21975 12.8632 6.32915 12.9757C6.43854 13.0883 6.5 13.2409 6.5 13.4C6.5 13.5591 6.43854 13.7117 6.32915 13.8243C6.21975 13.9368 6.07138 14 5.91667 14H3.58333C3.42862 14 3.28025 13.9368 3.17085 13.8243C3.06146 13.7117 3 13.5591 3 13.4Z" fill="#4F4F4F"/>
<path d="M8.75 0H2.33333C1.71449 0 1.121 0.237053 0.683417 0.65901C0.245833 1.08097 0 1.65326 0 2.25V15.75C0 16.3467 0.245833 16.919 0.683417 17.341C1.121 17.7629 1.71449 18 2.33333 18H11.6667C12.2855 18 12.879 17.7629 13.3166 17.341C13.7542 16.919 14 16.3467 14 15.75V5.0625L8.75 0ZM8.75 1.125V3.375C8.75 3.82255 8.93437 4.25178 9.26256 4.56824C9.59075 4.88471 10.0359 5.0625 10.5 5.0625H12.8333V15.75C12.8333 16.0484 12.7104 16.3345 12.4916 16.5455C12.2728 16.7565 11.9761 16.875 11.6667 16.875H2.33333C2.02391 16.875 1.72717 16.7565 1.50838 16.5455C1.28958 16.3345 1.16667 16.0484 1.16667 15.75V2.25C1.16667 1.95163 1.28958 1.66548 1.50838 1.4545C1.72717 1.24353 2.02391 1.125 2.33333 1.125H8.75Z" fill="#4F4F4F"/>
</svg>
