<svg width="44" height="22" viewBox="0 0 44 22" fill="none" xmlns="http://www.w3.org/2000/svg">
<g clip-path="url(#clip0_19683_7356)">
<path fill-rule="evenodd" clip-rule="evenodd" d="M0 11C0 4.92487 4.92487 0 11 0H33C39.0751 0 44 4.92487 44 11C44 17.0751 39.0751 22 33 22H11C4.92487 22 0 17.0751 0 11Z" fill="#0061C1"/>
<circle cx="33" cy="11" r="7" fill="white"/>
<path d="M13.8847 8.2068C14.0256 8.07269 14.213 7.99855 14.4075 8.00002C14.602 8.00149 14.7883 8.07846 14.9272 8.21469C15.066 8.35092 15.1464 8.53575 15.1516 8.73018C15.1567 8.92461 15.0861 9.11343 14.9547 9.2568L10.9647 14.2468C10.8961 14.3207 10.8133 14.38 10.7212 14.4212C10.6292 14.4623 10.5298 14.4845 10.429 14.4864C10.3281 14.4882 10.228 14.4698 10.1345 14.432C10.041 14.3943 9.95601 14.3381 9.88471 14.2668L7.23871 11.6208C7.16502 11.5521 7.10592 11.4693 7.06493 11.3773C7.02394 11.2853 7.00189 11.186 7.00012 11.0853C6.99834 10.9846 7.01686 10.8846 7.05459 10.7912C7.09231 10.6978 7.14845 10.613 7.21967 10.5418C7.29089 10.4705 7.37572 10.4144 7.46911 10.3767C7.5625 10.339 7.66253 10.3204 7.76323 10.3222C7.86393 10.324 7.96325 10.346 8.05525 10.387C8.14725 10.428 8.23005 10.4871 8.29871 10.5608L10.3927 12.6538L13.8657 8.2288C13.872 8.2211 13.8786 8.21376 13.8857 8.2068H13.8847Z" fill="white"/>
</g>
<defs>
<clipPath id="clip0_19683_7356">
<rect width="44" height="22" fill="white"/>
</clipPath>
</defs>
</svg>
