<svg width="8" height="11" viewBox="0 0 8 11" fill="none" xmlns="http://www.w3.org/2000/svg">
<path d="M7.88662 4.12589C7.74919 4.24614 7.53414 4.25707 7.3826 4.15869L7.33918 4.12589L4 1.20426L0.660816 4.12589C0.523387 4.24614 0.308336 4.25707 0.156794 4.15869L0.113379 4.12589C-0.0240498 4.00564 -0.0365429 3.81747 0.0758982 3.68487L0.113379 3.64688L3.72628 0.485589C3.86371 0.36534 4.07876 0.354408 4.2303 0.452794L4.27372 0.485589L7.88662 3.64688C8.03779 3.77916 8.03779 3.99362 7.88662 4.12589Z" fill="#BDBDBD"/>
<path d="M0.113378 7.03329C0.250806 6.91304 0.465858 6.90211 0.6174 7.00049L0.660815 7.03329L4 9.95491L7.33918 7.03329C7.47661 6.91304 7.69166 6.90211 7.84321 7.00049L7.88662 7.03329C8.02405 7.15354 8.03654 7.34171 7.9241 7.47431L7.88662 7.51229L4.27372 10.6736C4.13629 10.7938 3.92124 10.8048 3.7697 10.7064L3.72628 10.6736L0.113378 7.51229C-0.0377927 7.38002 -0.0377927 7.16556 0.113378 7.03329Z" fill="#4F4F4F"/>
</svg>
