<svg width="24" height="24" viewBox="0 0 24 24" fill="none" xmlns="http://www.w3.org/2000/svg">
<path d="M21 12.0005C21 11.6496 20.7957 11.3346 20.4807 11.1986L16.9743 9.67736L20.4793 8.15652C20.7957 8.01977 21 7.70512 21 7.35462C21 7.00412 20.7957 6.68947 20.4807 6.55342L12.5604 3.11729C12.2053 2.9612 11.7971 2.96085 11.44 3.11659L3.52066 6.55307C3.20426 6.68982 3 7.00447 3 7.35497C3 7.70547 3.20426 8.02012 3.51926 8.15617L7.02539 9.67772L3.52031 11.1986C3.20426 11.335 3 11.6496 3 12.0005C3 12.351 3.20426 12.6656 3.51926 12.8017L7.02504 14.3225L3.52031 15.843C3.20426 15.9801 3 16.2947 3 16.6456C3 16.9961 3.20426 17.3107 3.51926 17.4468L11.4407 20.8836C11.6171 20.9602 11.8073 20.9998 11.9996 21C12.1902 21 12.3807 20.9613 12.5586 20.8836L20.479 17.4475C20.7954 17.3107 20.9996 16.9961 20.9996 16.6456C20.9996 16.2947 20.7954 15.9797 20.4804 15.8437L16.9746 14.3229L20.4793 12.8024C20.7957 12.6656 21 12.351 21 12.0005ZM4.59012 7.35497L11.9037 4.18181L11.9047 4.1811C11.9659 4.15614 12.033 4.15439 12.0963 4.18181L19.4099 7.35497L12.0963 10.5285C12.0327 10.5556 11.9648 10.5556 11.9037 10.5285L4.59012 7.35497ZM19.4099 16.6456L12.0963 19.8188C12.0327 19.8458 11.9648 19.8458 11.9037 19.8188L4.59012 16.6452L8.48402 14.9557L11.441 16.2385C11.6174 16.315 11.8077 16.3546 12 16.3549C12.1905 16.3549 12.3811 16.3162 12.559 16.2385L15.516 14.9557L19.4099 16.6456ZM12.0963 15.1736C12.0327 15.2007 11.9648 15.2007 11.9037 15.1736L4.59012 12.0001L8.48438 10.3105L11.441 11.5937C11.6174 11.6702 11.8077 11.7099 12 11.7101C12.1905 11.7101 12.3811 11.6714 12.559 11.5937L15.5156 10.3109L19.4099 12.0008L12.0963 15.1736Z" fill="#4F4F4F" stroke="#4F4F4F" stroke-width="0.2"/>
</svg>
