<svg width="16" height="13" viewBox="0 0 16 13" fill="none" xmlns="http://www.w3.org/2000/svg">
<path d="M1.01482 4.29817C1.52569 3.94502 1.9399 3.64919 2.25746 3.4107C2.57963 3.16762 2.85808 2.91995 3.0928 2.6677C3.32752 2.41545 3.46329 2.18154 3.50011 1.96598C3.50931 1.89259 3.51392 1.84214 3.51392 1.81462C3.51392 1.60824 3.41036 1.50504 3.20326 1.50504C3.06979 1.50504 2.96163 1.55549 2.87879 1.65639C2.79594 1.75729 2.73151 1.92699 2.68549 2.16549H1.37381C1.50267 1.56008 1.76271 1.11061 2.15391 0.817079C2.54511 0.518962 2.99385 0.369904 3.50011 0.369904C3.99256 0.369904 4.35385 0.477684 4.58397 0.693246C4.81409 0.908808 4.92915 1.19087 4.92915 1.53944C4.92915 1.64951 4.91995 1.75041 4.90154 1.84214C4.81869 2.29161 4.58397 2.71815 4.19737 3.12175C3.81537 3.52077 3.35744 3.88539 2.82356 4.21561H4.54945L4.35615 5.30947H0.835327L1.01482 4.29817Z" fill="white"/>
<path d="M5.22832 2.87409C5.36639 2.11733 5.63563 1.51651 6.03604 1.07163C6.43645 0.626743 6.98183 0.404302 7.67219 0.404302C8.23829 0.404302 8.6525 0.557947 8.91484 0.865237C9.18178 1.16794 9.31524 1.5876 9.31524 2.12421C9.31524 2.37646 9.29223 2.62642 9.24621 2.87409C9.11274 3.63085 8.8435 4.23396 8.43849 4.68343C8.03348 5.12831 7.4881 5.35075 6.80234 5.35075C6.23625 5.35075 5.81973 5.1994 5.55279 4.8967C5.29046 4.59399 5.15929 4.17204 5.15929 3.63085C5.15929 3.38318 5.1823 3.13093 5.22832 2.87409ZM7.90691 2.87409C7.94833 2.62642 7.96905 2.43608 7.96905 2.30308C7.96905 2.10586 7.92992 1.95222 7.85168 1.84214C7.77344 1.73207 7.63997 1.67703 7.45128 1.67703C7.17974 1.67703 6.97953 1.78252 6.85067 1.99349C6.7218 2.20447 6.62515 2.498 6.56071 2.87409C6.51929 3.12175 6.49858 3.31438 6.49858 3.45198C6.49858 3.64919 6.5377 3.80284 6.61594 3.91291C6.69418 4.02298 6.82995 4.07802 7.02325 4.07802C7.2948 4.07802 7.4904 3.97483 7.61006 3.76844C7.73432 3.55746 7.83328 3.25935 7.90691 2.87409Z" fill="white"/>
<path d="M9.8898 1.64263C9.95884 1.25738 10.1222 0.961551 10.38 0.755162C10.6423 0.548774 10.9507 0.44558 11.305 0.44558C11.6134 0.44558 11.8573 0.523549 12.0368 0.679487C12.2209 0.835425 12.313 1.06016 12.313 1.35369C12.313 1.45459 12.3038 1.55091 12.2853 1.64263C12.2163 2.02789 12.0529 2.32372 11.7952 2.53011C11.5421 2.73649 11.2383 2.83969 10.8839 2.83969C10.5756 2.83969 10.327 2.76172 10.1383 2.60578C9.95424 2.44526 9.86219 2.21594 9.86219 1.91782C9.86219 1.86278 9.8714 1.77105 9.8898 1.64263ZM14.8328 0.514376L11.3534 5.37827H10.0555L13.5349 0.514376H14.8328ZM11.1601 1.22986C10.976 1.22986 10.8563 1.36745 10.8011 1.64263C10.7919 1.71602 10.7873 1.76417 10.7873 1.78711C10.7873 1.96139 10.8609 2.04853 11.0082 2.04853C11.1048 2.04853 11.1854 2.01413 11.2498 1.94534C11.3142 1.87654 11.358 1.77564 11.381 1.64263C11.3902 1.60594 11.3948 1.55549 11.3948 1.49128C11.3948 1.317 11.3165 1.22986 11.1601 1.22986ZM12.6029 4.24313C12.6719 3.85787 12.8353 3.56205 13.0931 3.35566C13.3508 3.14927 13.6569 3.04608 14.0112 3.04608C14.3196 3.04608 14.5635 3.12405 14.743 3.27998C14.9271 3.43592 15.0192 3.66295 15.0192 3.96107C15.0192 4.02069 15.01 4.11471 14.9915 4.24313C14.9225 4.62839 14.7591 4.92651 14.5014 5.13748C14.2483 5.34387 13.9445 5.44707 13.5901 5.44707C13.2818 5.44707 13.0355 5.3691 12.8514 5.21316C12.6673 5.05263 12.5753 4.82102 12.5753 4.51832C12.5753 4.46328 12.5845 4.37155 12.6029 4.24313ZM13.8663 3.83723C13.673 3.83723 13.5533 3.97253 13.5073 4.24313C13.4981 4.27982 13.4935 4.33027 13.4935 4.39448C13.4935 4.56877 13.5694 4.65591 13.7213 4.65591C13.91 4.65591 14.032 4.51832 14.0872 4.24313C14.0964 4.17892 14.101 4.13306 14.101 4.10554C14.101 4.0184 14.0803 3.95189 14.0389 3.90603C13.9974 3.86017 13.9399 3.83723 13.8663 3.83723Z" fill="white"/>
<path d="M5.19216 12.5927C4.85619 12.5927 4.55703 12.5262 4.29469 12.3932C4.03696 12.2602 3.83676 12.0721 3.69408 11.8291C3.55141 11.586 3.48007 11.3016 3.48007 10.976C3.48007 10.5357 3.58363 10.1367 3.79073 9.77894C4.00244 9.4212 4.29239 9.14142 4.66058 8.93962C5.02878 8.73782 5.44069 8.63692 5.89633 8.63692C6.2323 8.63692 6.52915 8.70342 6.78689 8.83643C7.04922 8.96943 7.25173 9.15977 7.3944 9.40744C7.54168 9.65052 7.61532 9.93487 7.61532 10.2605C7.61532 10.7054 7.50946 11.1067 7.29775 11.4644C7.08604 11.8176 6.79609 12.0951 6.4279 12.2969C6.05971 12.4941 5.6478 12.5927 5.19216 12.5927ZM5.39927 11.43C5.56035 11.43 5.70303 11.3796 5.82729 11.2787C5.95616 11.1778 6.05281 11.0471 6.11724 10.8866C6.18628 10.726 6.22079 10.5609 6.22079 10.3912C6.22079 10.1986 6.17017 10.0518 6.06892 9.95093C5.97227 9.85003 5.8457 9.79957 5.68922 9.79957C5.52353 9.79957 5.37856 9.85003 5.25429 9.95093C5.13463 10.0518 5.04028 10.1825 4.97125 10.3431C4.90681 10.5036 4.8746 10.671 4.8746 10.8453C4.8746 11.0379 4.92292 11.1847 5.01957 11.2856C5.11622 11.3819 5.24279 11.43 5.39927 11.43Z" fill="white"/>
<path d="M10.6166 8.2723C10.5798 8.26771 10.5315 8.26542 10.4716 8.26542C10.3197 8.26542 10.2047 8.29982 10.1264 8.36861C10.0482 8.43282 9.99067 8.53831 9.95385 8.68508H10.5614L10.3612 9.80645H9.75365L9.2704 12.5445H7.91039L8.39364 9.80645H7.97252L8.17273 8.68508H8.59385L8.60075 8.65068C8.6928 8.15534 8.90681 7.77697 9.24278 7.51554C9.57876 7.24953 10.0183 7.11652 10.5614 7.11652C10.6718 7.11652 10.757 7.11882 10.8168 7.1234L10.6166 8.2723Z" fill="white"/>
<path d="M13.192 8.2723C13.1551 8.26771 13.1068 8.26542 13.047 8.26542C12.8951 8.26542 12.78 8.29982 12.7018 8.36861C12.6236 8.43282 12.566 8.53831 12.5292 8.68508H13.1367L12.9365 9.80645H12.329L11.8458 12.5445H10.4858L10.969 9.80645H10.5479L10.7481 8.68508H11.1692L11.1761 8.65068C11.2682 8.15534 11.4822 7.77697 11.8181 7.51554C12.1541 7.24953 12.5936 7.11652 13.1367 7.11652C13.2472 7.11652 13.3323 7.11882 13.3922 7.1234L13.192 8.2723Z" fill="white"/>
</svg>
