<svg width="53" height="8" viewBox="0 0 53 8" fill="none" xmlns="http://www.w3.org/2000/svg">
<path d="M1.01765 6.92306H5.59661V5.91203H2.68747V5.86637L3.83873 4.69555C5.13675 3.4497 5.4955 2.84309 5.4955 2.08972C5.4955 0.971068 4.58558 0.152466 3.2419 0.152466C1.91779 0.152466 0.978516 0.974329 0.978516 2.243H2.12978C2.12978 1.56138 2.56028 1.13414 3.2256 1.13414C3.86156 1.13414 4.33446 1.52224 4.33446 2.15168C4.33446 2.70937 3.99528 3.10726 3.33648 3.77584L1.01765 6.04901V6.92306Z" fill="white"/>
<path d="M9.11888 7.01437C10.5474 7.01437 11.5877 6.19577 11.5845 5.06734C11.5877 4.23243 11.0659 3.63234 10.1299 3.49862V3.44644C10.8539 3.2899 11.3399 2.75177 11.3366 2.00166C11.3399 0.984114 10.4723 0.152466 9.13845 0.152466C7.84043 0.152466 6.83592 0.925409 6.80983 2.04406H7.97414C7.99371 1.4831 8.51553 1.13414 9.13193 1.13414C9.75485 1.13414 10.169 1.51245 10.1658 2.07341C10.169 2.65719 9.68636 3.0453 8.99495 3.0453H8.40464V3.97805H8.99495C9.83964 3.97805 10.3419 4.40202 10.3386 5.00537C10.3419 5.59568 9.82986 6.00009 9.11562 6.00009C8.44378 6.00009 7.92522 5.65112 7.89587 5.10648H6.6696C6.70221 6.23491 7.70997 7.01437 9.11888 7.01437Z" fill="white"/>
<path d="M13.247 6.99481C13.6318 6.99481 13.9612 6.67519 13.9644 6.27731C13.9612 5.88594 13.6318 5.56633 13.247 5.56633C12.8491 5.56633 12.5262 5.88594 12.5295 6.27731C12.5262 6.67519 12.8491 6.99481 13.247 6.99481Z" fill="white"/>
<path d="M17.0619 0.243784H15.9107L14.2506 1.31025V2.41911L15.8128 1.42114H15.852V6.92306H17.0619V0.243784Z" fill="white"/>
<path d="M21.4746 0.243784H20.3233L18.6633 1.31025V2.41911L20.2255 1.42114H20.2646V6.92306H21.4746V0.243784Z" fill="white"/>
<path d="M28.4979 3.09748H25.4909V4.06936H28.4979V3.09748Z" fill="white"/>
<path d="M34.7214 0.243784H33.5701L31.9101 1.31025V2.41911L33.4723 1.42114H33.5114V6.92306H34.7214V0.243784Z" fill="white"/>
<path d="M36.4173 6.92306H40.9963V5.91203H38.0871V5.86637L39.2384 4.69555C40.5364 3.4497 40.8952 2.84309 40.8952 2.08972C40.8952 0.971068 39.9852 0.152466 38.6416 0.152466C37.3174 0.152466 36.3782 0.974329 36.3782 2.243H37.5294C37.5294 1.56138 37.9599 1.13414 38.6253 1.13414C39.2612 1.13414 39.7341 1.52224 39.7341 2.15168C39.7341 2.70937 39.3949 3.10726 38.7361 3.77584L36.4173 6.04901V6.92306Z" fill="white"/>
<path d="M42.8618 6.99481C43.2466 6.99481 43.576 6.67519 43.5793 6.27731C43.576 5.88594 43.2466 5.56633 42.8618 5.56633C42.4639 5.56633 42.141 5.88594 42.1443 6.27731C42.141 6.67519 42.4639 6.99481 42.8618 6.99481Z" fill="white"/>
<path d="M46.6767 0.243784H45.5255L43.8654 1.31025V2.41911L45.4276 1.42114H45.4668V6.92306H46.6767V0.243784Z" fill="white"/>
<path d="M48.3727 6.92306H52.9516V5.91203H50.0425V5.86637L51.1937 4.69555C52.4918 3.4497 52.8505 2.84309 52.8505 2.08972C52.8505 0.971068 51.9406 0.152466 50.5969 0.152466C49.2728 0.152466 48.3335 0.974329 48.3335 2.243H49.4848C49.4848 1.56138 49.9153 1.13414 50.5806 1.13414C51.2166 1.13414 51.6895 1.52224 51.6895 2.15168C51.6895 2.70937 51.3503 3.10726 50.6915 3.77584L48.3727 6.04901V6.92306Z" fill="white"/>
</svg>
