<svg width="39" height="7" viewBox="0 0 39 7" fill="none" xmlns="http://www.w3.org/2000/svg">
<path d="M0.151437 5.50112C0.151437 5.75542 0.357592 5.96158 0.611898 5.96158H3.19496C3.40378 5.96158 3.57306 5.7923 3.57306 5.58348C3.57306 5.37466 3.40378 5.20537 3.19496 5.20537H1.42345C1.41006 5.20537 1.39921 5.19452 1.39921 5.18114C1.39921 5.17478 1.4017 5.16868 1.40615 5.16415L2.25949 4.29549C3.22943 3.36366 3.49751 2.90993 3.49751 2.34644C3.49751 1.50974 2.81757 0.897461 1.81351 0.897461C0.981327 0.897461 0.35257 1.3323 0.173722 2.03508C0.115133 2.2653 0.314773 2.46109 0.552332 2.46109C0.789892 2.46109 0.966854 2.25727 1.07164 2.04407C1.19984 1.78323 1.45898 1.63171 1.80132 1.63171C2.27655 1.63171 2.62992 1.92199 2.62992 2.39279C2.62992 2.80992 2.37647 3.10752 1.88418 3.60759L0.289401 5.17245C0.201155 5.25904 0.151437 5.37748 0.151437 5.50112Z" fill="white"/>
<path d="M6.20507 6.02988C7.2725 6.02988 8.04992 5.4176 8.04749 4.57358C8.0499 3.95513 7.66748 3.50894 6.98072 3.40324C6.96925 3.40147 6.96056 3.39163 6.96056 3.38003C6.96056 3.36905 6.9683 3.35956 6.97899 3.3571C7.50982 3.23493 7.86468 2.83524 7.86227 2.28058C7.86471 1.5195 7.21645 0.897461 6.2197 0.897461C5.43005 0.897461 4.78578 1.28063 4.56302 1.87454C4.47679 2.10443 4.68177 2.31229 4.9273 2.31229C5.16291 2.31229 5.34587 2.10538 5.49757 1.9251C5.65465 1.73844 5.92029 1.63171 6.21482 1.63171C6.6803 1.63171 6.98981 1.91467 6.98737 2.33425C6.98981 2.77089 6.62912 3.06118 6.11247 3.06118H6.02019C5.82754 3.06118 5.67136 3.21735 5.67136 3.41C5.67136 3.60266 5.82754 3.75883 6.02019 3.75883H6.11247C6.74366 3.75883 7.11897 4.07595 7.11653 4.52723C7.11897 4.96876 6.73635 5.27124 6.20264 5.27124C5.89157 5.27124 5.62448 5.17103 5.46108 4.99789C5.29202 4.81876 5.09826 4.60285 4.85195 4.60285C4.59071 4.60285 4.37263 4.82557 4.4704 5.06781C4.70681 5.65352 5.35919 6.02988 6.20507 6.02988Z" fill="white"/>
<path d="M9.28977 6.01524C9.57735 6.01524 9.82349 5.77619 9.82592 5.47858C9.82349 5.18586 9.57735 4.9468 9.28977 4.9468C8.99245 4.9468 8.75119 5.18586 8.75362 5.47858C8.75119 5.77619 8.99245 6.01524 9.28977 6.01524Z" fill="white"/>
<path d="M12.1405 1.6307C12.1405 1.26346 11.8428 0.965763 11.4756 0.965763C11.348 0.965763 11.2232 1.00244 11.1159 1.07142L10.2003 1.66021C10.1003 1.72455 10.0398 1.83533 10.0398 1.95428C10.0398 2.2305 10.345 2.39763 10.5777 2.24883L11.2015 1.84994C11.2052 1.84761 11.2094 1.84637 11.2137 1.84637C11.2262 1.84637 11.2364 1.8565 11.2364 1.869V5.5095C11.2364 5.75918 11.4388 5.96158 11.6884 5.96158C11.9381 5.96158 12.1405 5.75918 12.1405 5.5095V1.6307Z" fill="white"/>
<path d="M15.4378 1.6307C15.4378 1.26347 15.1401 0.965763 14.7729 0.965763C14.6454 0.965763 14.5205 1.00244 14.4133 1.07142L13.4976 1.66021C13.3976 1.72455 13.3371 1.83533 13.3371 1.95428C13.3371 2.2305 13.6424 2.39763 13.8751 2.24883L14.4989 1.84994C14.5025 1.84761 14.5068 1.84637 14.5111 1.84637C14.5236 1.84637 14.5337 1.8565 14.5337 1.869V5.5095C14.5337 5.75918 14.7361 5.96158 14.9858 5.96158C15.2354 5.96158 15.4378 5.75918 15.4378 5.5095V1.6307Z" fill="white"/>
<path d="M20.686 3.46367C20.686 3.26293 20.5233 3.10021 20.3226 3.10021H18.8025C18.6018 3.10021 18.4391 3.26293 18.4391 3.46367C18.4391 3.66441 18.6018 3.82714 18.8025 3.82714H20.3226C20.5233 3.82714 20.686 3.66441 20.686 3.46367Z" fill="white"/>
<path d="M25.3365 1.6307C25.3365 1.26346 25.0388 0.965763 24.6716 0.965763C24.5441 0.965763 24.4192 1.00244 24.312 1.07142L23.3963 1.66021C23.2963 1.72455 23.2358 1.83533 23.2358 1.95428C23.2358 2.2305 23.541 2.39763 23.7738 2.24883L24.3976 1.84994C24.4012 1.84761 24.4054 1.84637 24.4098 1.84637C24.4223 1.84637 24.4324 1.8565 24.4324 1.869V5.50951C24.4324 5.75918 24.6348 5.96158 24.8845 5.96158C25.1341 5.96158 25.3365 5.75918 25.3365 5.5095V1.6307Z" fill="white"/>
<path d="M26.6038 5.50112C26.6038 5.75542 26.81 5.96158 27.0643 5.96158H29.6473C29.8561 5.96158 30.0254 5.7923 30.0254 5.58348C30.0254 5.37466 29.8561 5.20537 29.6473 5.20537H27.8758C27.8624 5.20537 27.8516 5.19452 27.8516 5.18114C27.8516 5.17478 27.8541 5.16868 27.8585 5.16415L28.7119 4.29549C29.6818 3.36366 29.9499 2.90993 29.9499 2.34644C29.9499 1.50974 29.2699 0.897461 28.2659 0.897461C27.4337 0.897461 26.8049 1.3323 26.6261 2.03508C26.5675 2.2653 26.7671 2.46109 27.0047 2.46109C27.2423 2.46109 27.4192 2.25727 27.524 2.04407C27.6522 1.78323 27.9114 1.63171 28.2537 1.63171C28.7289 1.63171 29.0823 1.92199 29.0823 2.39279C29.0823 2.80992 28.8288 3.10752 28.3366 3.60759L26.7418 5.17245C26.6535 5.25904 26.6038 5.37748 26.6038 5.50112Z" fill="white"/>
<path d="M31.4194 6.01524C31.707 6.01524 31.9531 5.77619 31.9556 5.47858C31.9531 5.18586 31.707 4.9468 31.4194 4.9468C31.1221 4.9468 30.8808 5.18586 30.8833 5.47858C30.8808 5.77619 31.1221 6.01524 31.4194 6.01524Z" fill="white"/>
<path d="M34.2702 1.6307C34.2702 1.26346 33.9725 0.965763 33.6052 0.965763C33.4777 0.965763 33.3529 1.00244 33.2456 1.07142L32.3299 1.66021C32.2299 1.72455 32.1694 1.83533 32.1694 1.95428C32.1694 2.2305 32.4747 2.39763 32.7074 2.24883L33.3312 1.84994C33.3348 1.84761 33.3391 1.84637 33.3434 1.84637C33.3559 1.84637 33.366 1.8565 33.366 1.869V5.50951C33.366 5.75918 33.5684 5.96158 33.8181 5.96158C34.0678 5.96158 34.2702 5.75918 34.2702 5.5095V1.6307Z" fill="white"/>
<path d="M35.5374 5.50112C35.5374 5.75542 35.7436 5.96158 35.9979 5.96158H38.581C38.7898 5.96158 38.9591 5.7923 38.9591 5.58348C38.9591 5.37466 38.7898 5.20537 38.581 5.20537H36.8094C36.7961 5.20537 36.7852 5.19452 36.7852 5.18114C36.7852 5.17478 36.7877 5.16868 36.7922 5.16415L37.6455 4.29549C38.6154 3.36366 38.8835 2.90993 38.8835 2.34644C38.8835 1.50974 38.2036 0.897461 37.1995 0.897461C36.3673 0.897461 35.7386 1.3323 35.5597 2.03508C35.5011 2.2653 35.7008 2.46109 35.9383 2.46109C36.1759 2.46109 36.3529 2.25727 36.4576 2.04407C36.5858 1.78323 36.845 1.63171 37.1873 1.63171C37.6625 1.63171 38.0159 1.92199 38.0159 2.39279C38.0159 2.80992 37.7625 3.10752 37.2702 3.60759L35.6754 5.17245C35.5872 5.25904 35.5374 5.37748 35.5374 5.50112Z" fill="white"/>
</svg>
