<svg width="29" height="5" viewBox="0 0 29 5" fill="none" xmlns="http://www.w3.org/2000/svg">
<path d="M0.905763 3.98695H3.0126V3.6282H1.4602V3.60211L2.21031 2.79982C2.78431 2.18505 2.9539 1.89805 2.9539 1.52789C2.9539 1.01259 2.53645 0.601659 1.9494 0.601659C1.36398 0.601659 0.918809 0.999545 0.918809 1.58659H1.30365C1.30365 1.20664 1.54988 0.953886 1.93635 0.953886C2.29837 0.953886 2.57558 1.17566 2.57558 1.52789C2.57558 1.83609 2.39458 2.06438 2.0081 2.48673L0.905763 3.69343V3.98695Z" fill="#BDBDBD"/>
<path d="M4.72971 4.03261C5.36568 4.03261 5.83205 3.56298 5.83205 2.92375C5.83205 2.27637 5.38198 1.80184 4.76885 1.80184C4.54381 1.80184 4.3253 1.88174 4.18833 1.991H4.16876L4.28617 1.00607H5.68203V0.647318H3.94698L3.74478 2.29105L4.1231 2.3367C4.26171 2.23723 4.49816 2.16548 4.70362 2.16711C5.12923 2.17037 5.44069 2.49325 5.44069 2.93027C5.44069 3.35914 5.14064 3.67386 4.72971 3.67386C4.38727 3.67386 4.11495 3.45372 4.08396 3.15205H3.6926C3.71706 3.66082 4.15571 4.03261 4.72971 4.03261Z" fill="#BDBDBD"/>
<path d="M6.64128 4.01305C6.80272 4.01305 6.9348 3.88096 6.9348 3.71952C6.9348 3.55809 6.80272 3.426 6.64128 3.426C6.47984 3.426 6.34776 3.55809 6.34776 3.71952C6.34776 3.88096 6.47984 4.01305 6.64128 4.01305Z" fill="#BDBDBD"/>
<path d="M8.65069 0.601659C7.97232 0.593505 7.5353 1.10391 7.5353 1.71705C7.5353 2.3628 8.01146 2.82591 8.58546 2.82591C8.93116 2.82591 9.22469 2.65632 9.40732 2.38236H9.43341C9.43341 3.20423 9.1138 3.67386 8.59851 3.67386C8.24628 3.67386 8.03103 3.45209 7.95928 3.14552H7.56139C7.63966 3.67386 8.03755 4.03261 8.59851 4.03261C9.34862 4.03261 9.81173 3.3673 9.81173 2.18016C9.81173 0.953886 9.1986 0.608182 8.65069 0.601659ZM8.65069 0.960409C9.06814 0.960409 9.37471 1.31916 9.37471 1.71052C9.37471 2.10841 9.04857 2.46716 8.63764 2.46716C8.22671 2.46716 7.92666 2.1345 7.92666 1.71705C7.92666 1.29959 8.23975 0.960409 8.65069 0.960409Z" fill="#BDBDBD"/>
<path d="M11.5162 0.601659C10.8378 0.593505 10.4008 1.10391 10.4008 1.71705C10.4008 2.3628 10.877 2.82591 11.451 2.82591C11.7967 2.82591 12.0902 2.65632 12.2728 2.38236H12.2989C12.2989 3.20423 11.9793 3.67386 11.464 3.67386C11.1118 3.67386 10.8965 3.45209 10.8248 3.14552H10.4269C10.5052 3.67386 10.9031 4.03261 11.464 4.03261C12.2141 4.03261 12.6772 3.3673 12.6772 2.18016C12.6772 0.953886 12.0641 0.608182 11.5162 0.601659ZM11.5162 0.960409C11.9337 0.960409 12.2402 1.31916 12.2402 1.71052C12.2402 2.10841 11.9141 2.46716 11.5032 2.46716C11.0922 2.46716 10.7922 2.1345 10.7922 1.71705C10.7922 1.29959 11.1053 0.960409 11.5162 0.960409Z" fill="#BDBDBD"/>
<path d="M14.4078 4.03261C15.1449 4.03261 15.5689 3.40806 15.5689 2.31714C15.5689 1.23436 15.1384 0.601659 14.4078 0.601659C13.6773 0.601659 13.2468 1.23436 13.2468 2.31714C13.2468 3.40806 13.6707 4.03261 14.4078 4.03261ZM14.4078 3.67386C13.9219 3.67386 13.6381 3.18629 13.6381 2.31714C13.6381 1.44961 13.9251 0.953886 14.4078 0.953886C14.8905 0.953886 15.1775 1.44961 15.1775 2.31714C15.1775 3.18629 14.8938 3.67386 14.4078 3.67386Z" fill="#BDBDBD"/>
<path d="M16.3589 4.01305C16.5204 4.01305 16.6524 3.88096 16.6524 3.71952C16.6524 3.55809 16.5204 3.426 16.3589 3.426C16.1975 3.426 16.0654 3.55809 16.0654 3.71952C16.0654 3.88096 16.1975 4.01305 16.3589 4.01305Z" fill="#BDBDBD"/>
<path d="M18.3092 4.03261C19.0463 4.03261 19.4703 3.40806 19.4703 2.31714C19.4703 1.23436 19.0398 0.601659 18.3092 0.601659C17.5787 0.601659 17.1482 1.23436 17.1482 2.31714C17.1482 3.40806 17.5721 4.03261 18.3092 4.03261ZM18.3092 3.67386C17.8233 3.67386 17.5395 3.18629 17.5395 2.31714C17.5395 1.44961 17.8265 0.953886 18.3092 0.953886C18.7919 0.953886 19.0789 1.44961 19.0789 2.31714C19.0789 3.18629 18.7952 3.67386 18.3092 3.67386Z" fill="#BDBDBD"/>
<path d="M21.1792 4.03261C21.9163 4.03261 22.3403 3.40806 22.3403 2.31714C22.3403 1.23436 21.9098 0.601659 21.1792 0.601659C20.4487 0.601659 20.0182 1.23436 20.0182 2.31714C20.0182 3.40806 20.4421 4.03261 21.1792 4.03261ZM21.1792 3.67386C20.6933 3.67386 20.4095 3.18629 20.4095 2.31714C20.4095 1.44961 20.6965 0.953886 21.1792 0.953886C21.6619 0.953886 21.9489 1.44961 21.9489 2.31714C21.9489 3.18629 21.6652 3.67386 21.1792 3.67386Z" fill="#BDBDBD"/>
<path d="M24.0492 4.03261C24.7863 4.03261 25.2103 3.40806 25.2103 2.31714C25.2103 1.23436 24.7798 0.601659 24.0492 0.601659C23.3187 0.601659 22.8882 1.23436 22.8882 2.31714C22.8882 3.40806 23.3121 4.03261 24.0492 4.03261ZM24.0492 3.67386C23.5633 3.67386 23.2795 3.18629 23.2795 2.31714C23.2795 1.44961 23.5665 0.953886 24.0492 0.953886C24.5319 0.953886 24.8189 1.44961 24.8189 2.31714C24.8189 3.18629 24.5352 3.67386 24.0492 3.67386Z" fill="#BDBDBD"/>
<path d="M26.7822 4.03914C27.2649 4.03914 27.428 3.73909 27.5128 3.60211H27.5584V3.98695H27.9302V1.26698H28.289V0.966931H27.9302V0.647318H27.5454V0.966931H26.854V1.26698H27.5454V1.88011H27.5128C27.428 1.74966 27.278 1.44961 26.7888 1.44961C26.1561 1.44961 25.719 1.95186 25.719 2.74111C25.719 3.53689 26.1561 4.03914 26.7822 4.03914ZM26.8344 3.69343C26.3517 3.69343 26.1039 3.26945 26.1039 2.73459C26.1039 2.20625 26.3452 1.79532 26.8344 1.79532C27.3041 1.79532 27.5519 2.17364 27.5519 2.73459C27.5519 3.30207 27.2975 3.69343 26.8344 3.69343Z" fill="#BDBDBD"/>
<path d="M0.560059 2.48347H28.3346V2.79656H0.560059V2.48347Z" fill="#BDBDBD"/>
</svg>
