<svg width="55" height="8" viewBox="0 0 55 8" fill="none" xmlns="http://www.w3.org/2000/svg">
<path d="M0.991053 7.17089H5.24294V6.23209H2.5416V6.18969L3.61063 5.10249C4.81593 3.94564 5.14906 3.38235 5.14906 2.68279C5.14906 1.64405 4.30413 0.883917 3.05643 0.883917C1.82689 0.883917 0.954712 1.64708 0.954712 2.82513H2.02374C2.02374 2.19219 2.42349 1.79547 3.04129 1.79547C3.63183 1.79547 4.07095 2.15585 4.07095 2.74033C4.07095 3.25819 3.75599 3.62766 3.14425 4.24848L0.991053 6.35928V7.17089Z" fill="#333333"/>
<path d="M8.44397 7.25569C9.75527 7.25569 10.6698 6.36534 10.6698 5.13277C10.6698 3.93958 9.84006 3.07951 8.7135 3.07951C8.21078 3.07951 7.7656 3.27939 7.53544 3.55194H7.4991L7.67778 1.90752H10.3458V0.968712H6.74806L6.42402 4.16671L7.43854 4.33327C7.6475 4.10312 8.04119 3.94867 8.41368 3.9517C9.09508 3.95472 9.58568 4.45744 9.58265 5.16003C9.58568 5.85354 9.10719 6.34717 8.44397 6.34717C7.88371 6.34717 7.43248 5.99284 7.39311 5.48407H6.30288C6.33317 6.51373 7.2326 7.25569 8.44397 7.25569Z" fill="#333333"/>
<path d="M12.1636 7.23752C12.521 7.23752 12.8268 6.94073 12.8299 6.57127C12.8268 6.20786 12.521 5.91108 12.1636 5.91108C11.7941 5.91108 11.4943 6.20786 11.4974 6.57127C11.4943 6.94073 11.7941 7.23752 12.1636 7.23752Z" fill="#333333"/>
<path d="M16.0029 0.883917C14.6583 0.874832 13.7649 1.7985 13.7649 3.00986C13.7679 4.17883 14.6007 5.02375 15.6879 5.02375C16.3572 5.02375 16.9387 4.69971 17.2385 4.16671H17.2809C17.2778 5.49316 16.7963 6.28357 15.9393 6.28357C15.4033 6.28357 15.0429 5.97467 14.9308 5.48104H13.8254C13.9526 6.50767 14.7643 7.25569 15.9393 7.25569C17.4262 7.25569 18.3741 6.01404 18.3711 3.87901C18.3681 1.61982 17.193 0.889974 16.0029 0.883917ZM16.0059 1.79244C16.6691 1.79244 17.1567 2.34361 17.1567 2.97655C17.1597 3.61857 16.6479 4.16974 15.9938 4.16974C15.3336 4.16974 14.8581 3.64885 14.8551 2.98563C14.8551 2.31938 15.3487 1.79244 16.0059 1.79244Z" fill="#333333"/>
<path d="M21.5328 0.883917C20.1881 0.874832 19.2948 1.7985 19.2948 3.00986C19.2978 4.17883 20.1306 5.02375 21.2178 5.02375C21.8871 5.02375 22.4685 4.69971 22.7683 4.16671H22.8107C22.8077 5.49316 22.3262 6.28357 21.4692 6.28357C20.9331 6.28357 20.5727 5.97467 20.4607 5.48104H19.3553C19.4825 6.50767 20.2941 7.25569 21.4692 7.25569C22.9561 7.25569 23.904 6.01404 23.901 3.87901C23.8979 1.61982 22.7229 0.889974 21.5328 0.883917ZM21.5358 1.79244C22.199 1.79244 22.6866 2.34361 22.6866 2.97655C22.6896 3.61857 22.1778 4.16974 21.5237 4.16974C20.8635 4.16974 20.388 3.64885 20.385 2.98563C20.385 2.31938 20.8786 1.79244 21.5358 1.79244Z" fill="#333333"/>
<path d="M27.2019 7.289C28.698 7.29203 29.5913 6.11095 29.5913 4.07586C29.5913 2.05288 28.6919 0.883917 27.2019 0.883917C25.712 0.883917 24.8155 2.04985 24.8125 4.07586C24.8125 6.10792 25.7059 7.289 27.2019 7.289ZM27.2019 6.34111C26.4297 6.34111 25.9451 5.56584 25.9482 4.07586C25.9512 2.598 26.4327 1.81969 27.2019 1.81969C27.9742 1.81969 28.4557 2.598 28.4587 4.07586C28.4587 5.56584 27.9772 6.34111 27.2019 6.34111Z" fill="#333333"/>
<path d="M31.0435 7.23752C31.4008 7.23752 31.7067 6.94073 31.7097 6.57127C31.7067 6.20786 31.4008 5.91108 31.0435 5.91108C30.674 5.91108 30.3742 6.20786 30.3772 6.57127C30.3742 6.94073 30.674 7.23752 31.0435 7.23752Z" fill="#333333"/>
<path d="M34.8805 7.289C36.3765 7.29203 37.2699 6.11095 37.2699 4.07586C37.2699 2.05288 36.3704 0.883917 34.8805 0.883917C33.3905 0.883917 32.4941 2.04985 32.4911 4.07586C32.4911 6.10792 33.3844 7.289 34.8805 7.289ZM34.8805 6.34111C34.1082 6.34111 33.6237 5.56584 33.6267 4.07586C33.6297 2.598 34.1113 1.81969 34.8805 1.81969C35.6527 1.81969 36.1342 2.598 36.1373 4.07586C36.1373 5.56584 35.6557 6.34111 34.8805 6.34111Z" fill="#333333"/>
<path d="M40.5686 7.289C42.0646 7.29203 42.958 6.11095 42.958 4.07586C42.958 2.05288 42.0586 0.883917 40.5686 0.883917C39.0786 0.883917 38.1822 2.04985 38.1792 4.07586C38.1792 6.10792 39.0725 7.289 40.5686 7.289ZM40.5686 6.34111C39.7963 6.34111 39.3118 5.56584 39.3148 4.07586C39.3178 2.598 39.7994 1.81969 40.5686 1.81969C41.3408 1.81969 41.8223 2.598 41.8254 4.07586C41.8254 5.56584 41.3438 6.34111 40.5686 6.34111Z" fill="#333333"/>
<path d="M46.2567 7.289C47.7527 7.29203 48.6461 6.11095 48.6461 4.07586C48.6461 2.05288 47.7467 0.883917 46.2567 0.883917C44.7667 0.883917 43.8703 2.04985 43.8673 4.07586C43.8673 6.10792 44.7607 7.289 46.2567 7.289ZM46.2567 6.34111C45.4844 6.34111 44.9999 5.56584 45.0029 4.07586C45.006 2.598 45.4875 1.81969 46.2567 1.81969C47.0289 1.81969 47.5104 2.598 47.5135 4.07586C47.5135 5.56584 47.032 6.34111 46.2567 6.34111Z" fill="#333333"/>
<path d="M51.3906 7.25266C52.1901 7.25266 52.5505 6.7772 52.7231 6.43802H52.7897V7.17089H53.8678V2.17099H54.4402V1.47748H53.8678V0.968712H52.7685V1.47748H51.539V2.17099H52.7685V3.28847H52.7231C52.5565 2.95232 52.2143 2.45869 51.3936 2.45869C50.3185 2.45869 49.4736 3.30059 49.4736 4.85113C49.4736 6.38351 50.2943 7.25266 51.3906 7.25266ZM51.6965 6.35322C50.9727 6.35322 50.5911 5.71726 50.5911 4.84508C50.5911 3.97895 50.9666 3.35813 51.6965 3.35813C52.4021 3.35813 52.7897 3.94261 52.7897 4.84508C52.7897 5.74754 52.396 6.35322 51.6965 6.35322Z" fill="#333333"/>
</svg>
