<svg width="29" height="7" viewBox="0 0 29 7" fill="none" xmlns="http://www.w3.org/2000/svg">
<path d="M2.31553 6.51372C2.98923 6.51372 3.39178 6.19783 3.57628 5.83722H3.60982V6.42706H4.58264V3.55333C4.58264 2.41837 3.65734 2.07733 2.83828 2.07733C1.93534 2.07733 1.24207 2.47987 1.01843 3.2626L1.9633 3.39678C2.06393 3.10326 2.34907 2.85167 2.84387 2.85167C3.3135 2.85167 3.57069 3.09208 3.57069 3.51419V3.53097C3.57069 3.82169 3.26598 3.83567 2.50841 3.91674C1.67537 4.00619 0.878662 4.25499 0.878662 5.22222C0.878662 6.06644 1.49646 6.51372 2.31553 6.51372ZM2.5783 5.77012C2.15618 5.77012 1.85428 5.57724 1.85428 5.20544C1.85428 4.81687 2.19253 4.65474 2.64539 4.59044C2.91096 4.5541 3.44209 4.48701 3.57348 4.38078V4.88676C3.57348 5.36478 3.18771 5.77012 2.5783 5.77012Z" fill="#333333"/>
<path d="M5.64491 6.42706H6.68203V4.4926H7.77784C9.10009 4.4926 9.81014 3.69869 9.81014 2.59728C9.81014 1.50426 9.10848 0.701965 7.79182 0.701965H5.64491V6.42706ZM6.68203 3.63999V1.56856H7.63248C8.40962 1.56856 8.75346 1.98787 8.75346 2.59728C8.75346 3.20669 8.40962 3.63999 7.63807 3.63999H6.68203Z" fill="#333333"/>
<path d="M11.6782 3.91115C11.6782 3.29056 12.064 2.93274 12.6063 2.93274C13.1374 2.93274 13.4505 3.27099 13.4505 3.84965V6.42706H14.4625V3.6931C14.4625 2.65599 13.8754 2.07733 12.9837 2.07733C12.324 2.07733 11.9046 2.37644 11.7062 2.86285H11.6558V0.701965H10.6662V6.42706H11.6782V3.91115Z" fill="#333333"/>
<path d="M17.367 6.51092C18.6249 6.51092 19.4244 5.62476 19.4244 4.29692C19.4244 2.96628 18.6249 2.07733 17.367 2.07733C16.109 2.07733 15.3095 2.96628 15.3095 4.29692C15.3095 5.62476 16.109 6.51092 17.367 6.51092ZM17.3725 5.70024C16.6765 5.70024 16.3354 5.07965 16.3354 4.29412C16.3354 3.5086 16.6765 2.87962 17.3725 2.87962C18.0574 2.87962 18.3985 3.5086 18.3985 4.29412C18.3985 5.07965 18.0574 5.70024 17.3725 5.70024Z" fill="#333333"/>
<path d="M21.2953 3.91115C21.2953 3.29056 21.6699 2.93274 22.2038 2.93274C22.7265 2.93274 23.0396 3.27658 23.0396 3.84965V6.42706H24.0516V3.6931C24.0544 2.66437 23.4673 2.07733 22.5812 2.07733C21.9382 2.07733 21.4965 2.38483 21.3009 2.86285H21.2505V2.13324H20.2833V6.42706H21.2953V3.91115Z" fill="#333333"/>
<path d="M26.9812 6.51092C27.982 6.51092 28.6697 6.02172 28.8486 5.27533L27.9037 5.1691C27.7667 5.53251 27.4313 5.7226 26.9952 5.7226C26.3411 5.7226 25.9078 5.2921 25.8994 4.5569H28.8905V4.2466C28.8905 2.73985 27.9848 2.07733 26.9281 2.07733C25.6981 2.07733 24.8958 2.98026 24.8958 4.30531C24.8958 5.65272 25.6869 6.51092 26.9812 6.51092ZM25.9022 3.87481C25.9329 3.3269 26.3383 2.86565 26.9421 2.86565C27.5235 2.86565 27.9149 3.29056 27.9205 3.87481H25.9022Z" fill="#333333"/>
</svg>
