<svg width="104" height="19" viewBox="0 0 104 19" fill="none" xmlns="http://www.w3.org/2000/svg">
<path d="M0.0206299 18.1791H7.3587C11.2164 18.1791 13.2711 16.1663 13.2711 13.4324C13.2711 10.8913 11.4512 9.35662 9.49722 9.26437V9.09664C11.2835 8.6941 12.6002 7.42776 12.6002 5.40664C12.6002 2.83203 10.6881 1.0038 6.89745 1.0038H0.0206299V18.1791ZM3.65193 15.2103V10.6481H6.69618C8.44054 10.6481 9.52238 11.6545 9.52238 13.0718C9.52238 14.3633 8.64181 15.2103 6.61231 15.2103H3.65193ZM3.65193 8.19091V3.93903H6.41104C8.02122 3.93903 8.93533 4.76928 8.93533 6.01046C8.93533 7.36905 7.82833 8.19091 6.34395 8.19091H3.65193Z" fill="white"/>
<path d="M19.2652 1.0038H15.6339V18.1791H19.2652V1.0038Z" fill="white"/>
<path d="M33.6416 6.55557H37.3316C36.8619 3.1591 33.868 0.768982 29.9851 0.768982C25.4481 0.768982 21.951 4.03966 21.951 9.60821C21.951 15.0426 25.2217 18.4139 30.0606 18.4139C34.3963 18.4139 37.4909 15.6716 37.4909 11.1513V8.98762H30.3038V11.7216H33.9938C33.9435 13.8517 32.4926 15.2019 30.0774 15.2019C27.3518 15.2019 25.6326 13.164 25.6326 9.57466C25.6326 6.00207 27.4189 3.98096 30.0438 3.98096C31.914 3.98096 33.1803 4.94539 33.6416 6.55557Z" fill="white"/>
<path d="M55.0016 5.94337H58.482C58.4316 2.88235 55.9157 0.768982 52.0916 0.768982C48.3261 0.768982 45.567 2.8488 45.5837 5.96853C45.5754 8.50121 47.3617 9.95205 50.2633 10.6481L52.1335 11.1178C54.0037 11.5706 55.0436 12.1073 55.0519 13.2647C55.0436 14.5226 53.8527 15.378 52.0077 15.378C50.1208 15.378 48.7622 14.5058 48.6448 12.7866H45.1309C45.2231 16.5018 47.8816 18.4223 52.0496 18.4223C56.2428 18.4223 58.7084 16.4179 58.7168 13.2731C58.7084 10.4133 56.5531 8.89537 53.5676 8.22446L52.0245 7.85546C50.5317 7.51162 49.2821 6.95812 49.3073 5.72532C49.3073 4.61832 50.2885 3.80485 52.0664 3.80485C53.8024 3.80485 54.8674 4.59316 55.0016 5.94337Z" fill="white"/>
<path d="M63.7276 18.1791L65.0024 14.2626H71.1999L72.4746 18.1791H76.3659L70.4451 1.0038H65.7655L59.8364 18.1791H63.7276ZM65.9249 11.4281L68.0382 4.92862H68.1724L70.2858 11.4281H65.9249Z" fill="white"/>
<path d="M78.4331 18.1791H89.4276V15.1851H82.0644V1.0038H78.4331V18.1791Z" fill="white"/>
<path d="M91.8324 18.1791H103.439V15.1851H95.4637V11.0842H102.81V8.09028H95.4637V3.99773H103.406V1.0038H91.8324V18.1791Z" fill="white"/>
</svg>
