<svg width="61" height="17" viewBox="0 0 61 17" fill="none" xmlns="http://www.w3.org/2000/svg">
<rect y="0.402954" width="61" height="16" rx="8" fill="#FD7F00"/>
<path d="M10 4.40295V10.5716H11.1248V6.32464H11.1848L12.9731 10.5536H13.8135L15.6018 6.33368H15.6618V10.5716H16.7866V4.40295H15.3522L13.4312 8.87283H13.3554L11.4344 4.40295H10Z" fill="white"/>
<path d="M21.1056 8.62585C21.1056 9.33067 20.578 9.68006 20.0725 9.68006C19.5227 9.68006 19.1562 9.30958 19.1562 8.72223V5.94512H18.0125V8.89091C18.0125 10.0024 18.676 10.6319 19.6301 10.6319C20.3568 10.6319 20.8687 10.2674 21.0898 9.74934H21.1404V10.5716H22.2494V5.94512H21.1056V8.62585Z" fill="white"/>
<path d="M24.822 10.665C25.5834 10.665 26.0384 10.3246 26.2469 9.93609H26.2848V10.5716H27.3843V7.47524C27.3843 6.25235 26.3385 5.88488 25.4128 5.88488C24.3923 5.88488 23.6087 6.31862 23.356 7.16199L24.4239 7.30657C24.5376 6.9903 24.8599 6.71922 25.4191 6.71922C25.9499 6.71922 26.2406 6.97826 26.2406 7.43307V7.45115C26.2406 7.7644 25.8962 7.77946 25.04 7.86681C24.0985 7.9632 23.198 8.23127 23.198 9.27344C23.198 10.1831 23.8963 10.665 24.822 10.665ZM25.119 9.8638C24.6419 9.8638 24.3007 9.65597 24.3007 9.25536C24.3007 8.83669 24.683 8.66199 25.1948 8.59271C25.495 8.55356 26.0953 8.48127 26.2438 8.36681V8.91199C26.2438 9.42705 25.8078 9.8638 25.119 9.8638Z" fill="white"/>
<path d="M31.885 7.86079C31.885 7.19211 32.3084 6.80657 32.9119 6.80657C33.5027 6.80657 33.8566 7.17705 33.8566 7.79452V10.5716H35.0003V7.62585C35.0035 6.51741 34.34 5.88488 33.3384 5.88488C32.6117 5.88488 32.1125 6.21621 31.8914 6.73127H31.8345V5.94512H30.7413V10.5716H31.885V7.86079Z" fill="white"/>
<path d="M38.2735 12.403C39.5847 12.403 40.5515 11.8307 40.5515 10.6469V5.94512H39.4236V6.71018H39.3604C39.1866 6.37585 38.8233 5.88488 37.9671 5.88488C36.8455 5.88488 35.964 6.72223 35.964 8.24332C35.964 9.75235 36.8455 10.5054 37.9639 10.5054C38.7949 10.5054 39.1835 10.0807 39.3604 9.7403H39.4173V10.6168C39.4173 11.2975 38.9434 11.5777 38.2925 11.5777C37.6037 11.5777 37.3004 11.2674 37.1614 10.9963L36.1314 11.2343C36.3399 11.8819 37.0382 12.403 38.2735 12.403ZM38.283 9.64994C37.5279 9.64994 37.1298 9.0897 37.1298 8.23729C37.1298 7.39693 37.5216 6.77946 38.283 6.77946C39.0192 6.77946 39.4236 7.36079 39.4236 8.23729C39.4236 9.11982 39.0129 9.64994 38.283 9.64994Z" fill="white"/>
<path d="M43.1202 10.665C43.8817 10.665 44.3366 10.3246 44.5451 9.93609H44.5831V10.5716H45.6826V7.47524C45.6826 6.25235 44.6368 5.88488 43.711 5.88488C42.6905 5.88488 41.907 6.31862 41.6542 7.16199L42.7221 7.30657C42.8359 6.9903 43.1581 6.71922 43.7174 6.71922C44.2482 6.71922 44.5388 6.97826 44.5388 7.43307V7.45115C44.5388 7.7644 44.1944 7.77946 43.3382 7.86681C42.3967 7.9632 41.4962 8.23127 41.4962 9.27344C41.4962 10.1831 42.1945 10.665 43.1202 10.665ZM43.4172 9.8638C42.9401 9.8638 42.5989 9.65597 42.5989 9.25536C42.5989 8.83669 42.9812 8.66199 43.493 8.59271C43.7932 8.55356 44.3935 8.48127 44.542 8.36681V8.91199C44.542 9.42705 44.106 9.8638 43.4172 9.8638Z" fill="white"/>
<path d="M47.3697 12.3066C48.2607 12.3066 48.7757 11.8698 49.0506 11.1319L51 5.95115L49.7773 5.94512L48.6557 9.4391H48.6051L47.4866 5.94512H46.2734L48.0332 10.668L47.9353 10.918C47.7236 11.4451 47.3887 11.4813 46.8895 11.3427L46.6241 12.1921C46.7789 12.2524 47.0569 12.3066 47.3697 12.3066Z" fill="white"/>
</svg>
