<svg width="153" height="146" viewBox="0 0 153 146" fill="none" xmlns="http://www.w3.org/2000/svg">
<path d="M152.784 0H0V145.341H152.784V0Z" fill="#F5F5F5"/>
<path d="M120.564 61.9241H32.2365C25.4416 61.9241 19.9333 67.7441 19.9333 74.9235V93.3781C19.9333 100.557 25.4416 106.378 32.2365 106.378H120.564C127.359 106.378 132.867 100.557 132.867 93.3781V74.9235C132.867 67.7441 127.359 61.9241 120.564 61.9241Z" fill="#E0E0E0"/>
<path d="M151.935 27.518C151.935 27.7597 118.26 27.9496 76.7761 27.9496C35.2918 27.9496 1.61755 27.7597 1.61755 27.518C1.61755 27.2763 35.2918 27.0864 76.7761 27.0864C118.26 27.0864 151.935 27.3454 151.935 27.518Z" fill="#E0E0E0"/>
<path d="M17.0577 16.7628C17.0577 17.555 16.8354 18.3293 16.4188 18.988C16.0023 19.6466 15.4103 20.1599 14.7177 20.4631C14.025 20.7662 13.2629 20.8455 12.5276 20.691C11.7923 20.5364 11.1169 20.155 10.5867 19.5949C10.0566 19.0348 9.6956 18.3211 9.54934 17.5442C9.40308 16.7673 9.47815 15.962 9.76505 15.2301C10.0519 14.4983 10.5378 13.8728 11.1612 13.4327C11.7845 12.9926 12.5174 12.7578 13.2671 12.7578C14.2724 12.7578 15.2366 13.1797 15.9474 13.9308C16.6583 14.6819 17.0577 15.7006 17.0577 16.7628Z" fill="#E0E0E0"/>
<path d="M28.2498 16.7627C28.2498 17.5556 28.0271 18.3307 27.6099 18.9897C27.1926 19.6487 26.5996 20.162 25.906 20.4646C25.2125 20.7672 24.4495 20.8456 23.7137 20.6896C22.978 20.5337 22.3026 20.1505 21.7731 19.5886C21.2436 19.0268 20.8839 18.3116 20.7395 17.5335C20.5951 16.7555 20.6725 15.9496 20.9619 15.2181C21.2513 14.4865 21.7397 13.8622 22.3652 13.4242C22.9907 12.9862 23.7252 12.7542 24.4756 12.7577C24.9726 12.7577 25.4647 12.8614 25.9237 13.0629C26.3827 13.2644 26.7995 13.5596 27.1502 13.9318C27.5009 14.3039 27.7785 14.7456 27.9672 15.2314C28.156 15.7172 28.252 16.2376 28.2498 16.7627Z" fill="#E0E0E0"/>
<path d="M39.4583 16.7628C39.4583 17.555 39.2359 18.3293 38.8194 18.988C38.4029 19.6466 37.8109 20.1599 37.1182 20.4631C36.4256 20.7662 35.6634 20.8455 34.9281 20.691C34.1928 20.5364 33.5174 20.155 32.9873 19.5949C32.4571 19.0348 32.0961 18.3211 31.9499 17.5442C31.8036 16.7673 31.8787 15.962 32.1656 15.2301C32.4525 14.4983 32.9383 13.8728 33.5617 13.4327C34.185 12.9926 34.9179 12.7578 35.6676 12.7578C36.673 12.7578 37.6371 13.1797 38.348 13.9308C39.0589 14.6819 39.4583 15.7006 39.4583 16.7628Z" fill="#E0E0E0"/>
<path d="M49.3759 85.3678V87.3186C49.3759 88.2343 49.0316 89.1125 48.4188 89.76C47.8059 90.4075 46.9748 90.7713 46.1081 90.7713C45.2414 90.7713 44.4103 90.4075 43.7974 89.76C43.1846 89.1125 42.8403 88.2343 42.8403 87.3186V79.6363C42.8403 78.7206 43.1846 77.8424 43.7974 77.1949C44.4103 76.5474 45.2414 76.1837 46.1081 76.1837C46.9748 76.1837 47.8059 76.5474 48.4188 77.1949C49.0316 77.8424 49.3759 78.7206 49.3759 79.6363V81.0347H47.2355V79.4464C47.2355 78.3934 46.7943 77.9963 46.1081 77.9963C45.4219 77.9963 44.9644 78.3934 44.9644 79.4464V87.4394C44.9644 88.4925 45.4055 88.8723 46.1081 88.8723C46.8107 88.8723 47.2355 88.4925 47.2355 87.4394V85.3333L49.3759 85.3678Z" fill="white"/>
<path d="M50.6667 76.0974H52.8561V88.7514H56.467V90.8749H50.6667V76.0974Z" fill="white"/>
<path d="M57.431 76.0974H59.6367V90.8749H57.431V76.0974Z" fill="white"/>
<path d="M67.61 85.3678V87.3185C67.6802 87.8014 67.6463 88.2948 67.5109 88.7619C67.3754 89.229 67.142 89.6577 66.8278 90.0162C66.5137 90.3746 66.127 90.6535 65.6967 90.8321C65.2663 91.0106 64.8033 91.0842 64.3423 91.0474C62.1856 91.0474 61.0745 89.6836 61.0745 87.3185V79.6363C61.0745 77.2712 62.1856 75.9246 64.3423 75.9246C64.8017 75.8883 65.263 75.9617 65.692 76.1393C66.121 76.3169 66.5067 76.5941 66.8205 76.9505C67.1343 77.307 67.3682 77.7335 67.5049 78.1984C67.6416 78.6633 67.6775 79.1547 67.61 79.6363V81.0346H65.5187V79.4463C65.5187 78.3933 65.0939 77.9962 64.3913 77.9962C63.6887 77.9962 63.2476 78.3933 63.2476 79.4463V87.4393C63.2476 88.4924 63.6887 88.8722 64.3913 88.8722C65.0939 88.8722 65.5187 88.4924 65.5187 87.4393V85.3332L67.61 85.3678Z" fill="white"/>
<path d="M71.8254 84.988L71.1392 86.3346V90.8749H68.9824V76.0974H71.1718V82.5366L74.0475 76.0974H76.2532L73.1652 82.761L76.2206 90.9612H73.9658L71.8254 84.988Z" fill="white"/>
<path d="M82.5111 90.8749H80.3217V76.0974H82.5111V82.433H85.0109V76.0974H87.2493V90.8749H85.0109V84.4874H82.5111V90.8749Z" fill="white"/>
<path d="M91.0399 82.3121H94.0625V84.4873H91.0399V88.8032H94.8468V90.9266H88.8505V76.1491H94.8468V78.2553H91.0399V82.3121Z" fill="white"/>
<path d="M100.794 90.8749C100.618 90.2898 100.551 89.6741 100.598 89.0622V86.7316C100.598 85.3678 100.157 84.8499 99.1603 84.8499H98.3923V90.8749H96.2029V76.0974H99.4707C101.742 76.0974 102.738 77.2022 102.738 79.55V80.7239C102.815 81.3196 102.718 81.9256 102.461 82.4619C102.205 82.9983 101.8 83.4397 101.301 83.7278C102.412 84.2111 102.771 85.316 102.771 86.8697V89.1485C102.741 89.7342 102.819 90.3204 103 90.8749H100.794ZM98.3923 78.2034V82.761H99.2583C100.075 82.761 100.582 82.3812 100.582 81.19V79.7399C100.582 78.6868 100.239 78.2207 99.4544 78.2207L98.3923 78.2034Z" fill="white"/>
<path d="M106.431 82.3121H109.454V84.4873H106.431V88.8032H110.238V90.9266H104.242V76.1491H110.238V78.2553H106.431V82.3121Z" fill="white"/>
</svg>
