<svg width="128" height="37" viewBox="0 0 128 37" fill="none" xmlns="http://www.w3.org/2000/svg">
<path d="M18.5 9.21099e-07C14.841 9.21099e-07 11.2642 1.085 8.22193 3.11781C5.17961 5.15061 2.80848 8.03994 1.40826 11.4204C0.00803439 14.8008 -0.358353 18.5205 0.355475 22.1092C1.0693 25.6978 2.83122 28.9942 5.41849 31.5815C8.00577 34.1688 11.3022 35.9307 14.8908 36.6445C18.4795 37.3583 22.1992 36.992 25.5797 35.5918C28.9601 34.1916 31.8494 31.8204 33.8823 28.7781C35.9151 25.7358 37 22.159 37 18.5C37.0008 16.0704 36.5229 13.6643 35.5934 11.4194C34.664 9.17458 33.3012 7.13489 31.5832 5.41686C29.8652 3.69882 27.8254 2.33614 25.5805 1.4067C23.3357 0.477261 20.9297 -0.000765899 18.5 9.21099e-07Z" fill="#0061C1"/>
<path d="M27.5292 11.9309C29.1082 11.9309 30.3882 10.714 30.3882 9.21288C30.3882 7.71178 29.1082 6.49493 27.5292 6.49493C25.9503 6.49493 24.6702 7.71178 24.6702 9.21288C24.6702 10.714 25.9503 11.9309 27.5292 11.9309Z" fill="white"/>
<path d="M12.2932 14.4224C14.2833 14.4224 15.8967 12.8886 15.8967 10.9966C15.8967 9.10455 14.2833 7.57074 12.2932 7.57074C10.3031 7.57074 8.68985 9.10455 8.68985 10.9966C8.68985 12.8886 10.3031 14.4224 12.2932 14.4224Z" fill="white"/>
<path d="M7.67774 22.8876C9.33564 22.8876 10.6797 21.6099 10.6797 20.0337C10.6797 18.4576 9.33564 17.1799 7.67774 17.1799C6.01984 17.1799 4.67596 18.4576 4.67596 20.0337C4.67596 21.6099 6.01984 22.8876 7.67774 22.8876Z" fill="white"/>
<path d="M17.6902 31.5001C19.3547 31.5001 20.704 30.2174 20.704 28.635C20.704 27.0525 19.3547 25.7697 17.6902 25.7697C16.0257 25.7697 14.6763 27.0525 14.6763 28.635C14.6763 30.2174 16.0257 31.5001 17.6902 31.5001Z" fill="white"/>
<path d="M27.8691 28.0464C29.1915 28.0464 30.2635 27.0273 30.2635 25.7701C30.2635 24.5129 29.1915 23.4938 27.8691 23.4938C26.5468 23.4938 25.4748 24.5129 25.4748 25.7701C25.4748 27.0273 26.5468 28.0464 27.8691 28.0464Z" fill="white"/>
<path d="M12.979 10.6055L12.2002 11.7518L20.5905 16.9041L21.3693 15.7579L12.979 10.6055Z" fill="white"/>
<path d="M26.8049 8.97419L24.8884 14.9188L26.2552 15.317L28.1717 9.37244L26.8049 8.97419Z" fill="white"/>
<path d="M20.7811 18.352C20.7794 18.693 20.8378 19.0317 20.9539 19.3543L19.5126 19.4959L7.75517 20.7133L7.60626 19.36L19.3637 18.1425L20.811 18.001C20.7922 18.1172 20.7822 18.2345 20.7811 18.352Z" fill="white"/>
<path d="M21.9186 20.6962C22.2852 20.996 22.7161 21.2163 23.1813 21.3417L22.4189 22.5308L18.3032 28.986L17.0762 28.2896L21.1682 21.8683L21.9186 20.6962Z" fill="white"/>
<path d="M28.5181 25.4924L27.2197 26.0587L25.5579 22.5706L24.9623 21.3305C25.4262 21.1961 25.8534 20.966 26.2131 20.6567L26.8087 21.9364L28.5181 25.4924Z" fill="white"/>
<path d="M26.5527 14.5921C26.1439 14.3383 25.6957 14.1472 25.2245 14.0258C24.8354 13.9301 24.4352 13.8807 24.0333 13.8786C23.3824 13.8776 22.7385 14.0066 22.1433 14.2573C21.5482 14.508 21.0151 14.8748 20.5787 15.3339C19.842 16.1007 19.4101 17.0881 19.3577 18.1255C19.3519 18.1952 19.3519 18.2652 19.3577 18.335C19.3604 18.7174 19.4144 19.098 19.5185 19.4675C19.7777 20.4113 20.3603 21.2461 21.1743 21.8401C21.5485 22.1271 21.9714 22.3511 22.425 22.5025C22.9426 22.6893 23.4915 22.7853 24.0451 22.7857C24.5627 22.7872 25.0767 22.703 25.5639 22.5365C26.0219 22.3916 26.4523 22.1775 26.8386 21.9023C27.4564 21.4738 27.9541 20.9077 28.2882 20.2536C28.6224 19.5996 28.7826 18.8776 28.755 18.151C28.7274 17.4244 28.5127 16.7154 28.1297 16.086C27.7468 15.4566 27.2074 14.9262 26.5587 14.5411L26.5527 14.5921ZM26.2191 20.651C25.8594 20.9602 25.4323 21.1903 24.9683 21.3248C24.6661 21.4069 24.3535 21.4488 24.0393 21.4493C23.7495 21.4509 23.4608 21.4147 23.1815 21.3418C22.7162 21.2163 22.2854 20.996 21.9188 20.6962C21.4781 20.3378 21.1451 19.8748 20.9539 19.3542C20.8378 19.0317 20.7794 18.6929 20.7811 18.352C20.7723 18.2351 20.7723 18.1178 20.7811 18.0009C20.8413 17.504 21.0274 17.0284 21.3235 16.6149C21.6196 16.2014 22.0168 15.8623 22.481 15.6268C22.9452 15.3914 23.4626 15.2665 23.9888 15.2629C24.5149 15.2594 25.0341 15.3773 25.5018 15.6064C25.9695 15.8356 26.3716 16.1692 26.6739 16.5786C26.9761 16.9881 27.1693 17.4612 27.2369 17.9573C27.3045 18.4533 27.2446 18.9576 27.0621 19.4267C26.8796 19.8959 26.5801 20.316 26.1893 20.651H26.2191Z" fill="white"/>
<path d="M54.5902 10.1819V22.2661H54.521L45.9655 13.2339V22.0996H44.5559V10.0308H44.6333L53.1888 19.0553V10.1819H54.5902Z" fill="#001F4D"/>
<path d="M57.7472 16.1389C57.7432 14.9302 58.1168 13.7475 58.8205 12.7408C59.5243 11.7341 60.5267 10.9487 61.7005 10.4842C62.8743 10.0197 64.1667 9.89698 65.414 10.1316C66.6613 10.3662 67.8072 10.9475 68.7065 11.802C69.6059 12.6564 70.2181 13.7455 70.4656 14.9311C70.7132 16.1167 70.585 17.3456 70.0971 18.4618C69.6093 19.578 68.7838 20.5314 67.7253 21.2011C66.6669 21.8709 65.423 22.2267 64.1516 22.2237C62.4567 22.2145 60.834 21.5706 59.6351 20.4316C58.4363 19.2926 57.7579 17.7502 57.7472 16.1389ZM69.1545 16.1389C69.1569 15.1998 68.8663 14.281 68.3195 13.4989C67.7727 12.7167 66.9942 12.1063 66.0825 11.7448C65.1707 11.3832 64.1667 11.2869 63.1973 11.4678C62.228 11.6488 61.3369 12.099 60.6366 12.7614C59.9364 13.4239 59.4585 14.2689 59.2634 15.1896C59.0684 16.1102 59.1647 17.0652 59.5406 17.9338C59.9164 18.8023 60.5546 19.5454 61.3747 20.0691C62.1947 20.5927 63.1596 20.8735 64.1475 20.8758C65.4723 20.8738 66.7426 20.3739 67.6814 19.4851C68.6201 18.5963 69.1511 17.3907 69.1586 16.1312L69.1545 16.1389Z" fill="#001F4D"/>
<path d="M83.0145 10.1819L77.3108 22.2352H77.1398L71.4768 10.1819H72.972L77.2172 19.3807L81.4786 10.1819H83.0145Z" fill="#001F4D"/>
<path d="M90.7514 20.1167H83.9355L83.0189 22.0533H81.4952L87.264 10H87.4188L93.1999 22.0533H91.6639L90.7514 20.1167ZM90.2096 18.9547L87.3578 12.8468L84.5059 18.9547H90.2096Z" fill="#001F4D"/>
<path d="M105.687 10.1819V22.2661H105.617L97.062 13.2339V22.0996H95.6524V10.0308H95.7298L104.285 19.0553V10.1819H105.687Z" fill="#001F4D"/>
<path d="M110.914 11.5143V15.2713H116.047V16.6114H110.914V20.7363H116.837V22.0686H109.504V10.1819H116.837V11.4988L110.914 11.5143Z" fill="#001F4D"/>
<path d="M128 11.522H124.382V22.0686H122.973V11.522H119.339V10.1819H128V11.522Z" fill="#001F4D"/>
<path d="M71.0694 30.8569C70.8619 30.8592 70.6573 30.8112 70.4747 30.7174C70.3097 30.6398 70.1692 30.5223 70.0673 30.3766H70.0306V30.7639H69.4155V26.6661H70.0673V27.8281L70.0306 28.2347H70.0673C70.1689 28.0879 70.3094 27.969 70.4747 27.89C70.6573 27.7963 70.8619 27.7483 71.0694 27.7506C71.3352 27.748 71.5964 27.8164 71.8232 27.9481C72.0486 28.0844 72.2315 28.2757 72.3528 28.502C72.4833 28.7494 72.5489 29.0231 72.5443 29.2999C72.5485 29.5778 72.4828 29.8527 72.3528 30.1016C72.2324 30.3275 72.0492 30.5177 71.8232 30.6516C71.5972 30.786 71.336 30.8572 71.0694 30.8569ZM70.9717 30.2914C71.1343 30.2915 71.2937 30.2486 71.4321 30.1674C71.5764 30.0836 71.6946 29.9646 71.7743 29.8227C71.8594 29.6632 71.9027 29.4865 71.9006 29.3076C71.9032 29.1287 71.8599 28.9519 71.7743 28.7925C71.6946 28.6507 71.5764 28.5316 71.4321 28.4478C71.2951 28.3668 71.137 28.3238 70.9757 28.3238C70.8145 28.3238 70.6565 28.3668 70.5195 28.4478C70.3752 28.5316 70.257 28.6507 70.1773 28.7925C70.0914 28.952 70.0468 29.1285 70.0468 29.3076C70.0468 29.4867 70.0914 29.6633 70.1773 29.8227C70.257 29.9646 70.3752 30.0836 70.5195 30.1674C70.6554 30.2476 70.8118 30.2905 70.9717 30.2914Z" fill="#8A92A6"/>
<path d="M73.9703 30.605L72.687 27.8474H73.4121L74.2881 29.8382H74.3207L75.168 27.8474H75.9014L74.0029 32.0032H73.3143L73.9703 30.605Z" fill="#8A92A6"/>
<path d="M77.8243 26.6699H78.6064L80.5538 29.6794H80.5905L80.5538 28.9047V26.6854H81.1976V30.7832H80.5132L78.4762 27.6189H78.4394L78.4762 28.3935V30.7678H77.8202L77.8243 26.6699Z" fill="#8A92A6"/>
<path d="M85.2717 30.5702C84.9262 30.7581 84.5352 30.8569 84.1371 30.8569C83.7391 30.8569 83.348 30.7581 83.0025 30.5702C82.6627 30.3862 82.3813 30.1186 82.1877 29.7956C81.998 29.4647 81.8986 29.0938 81.8986 28.7169C81.8986 28.34 81.998 27.9692 82.1877 27.6382C82.3828 27.313 82.6651 27.0426 83.0056 26.8546C83.3462 26.6665 83.733 26.5674 84.1269 26.5674C84.5208 26.5674 84.9077 26.6665 85.2483 26.8546C85.5888 27.0426 85.871 27.313 86.0661 27.6382C86.2558 27.9692 86.3553 28.34 86.3553 28.7169C86.3553 29.0938 86.2558 29.4647 86.0661 29.7956C85.8774 30.1156 85.6034 30.3827 85.2717 30.5702ZM83.3447 30.0667C83.5871 30.1949 83.8598 30.2622 84.1371 30.2622C84.4145 30.2622 84.6871 30.1949 84.9295 30.0667C85.1672 29.9356 85.363 29.7455 85.4958 29.5168C85.6321 29.2708 85.7033 28.9969 85.7033 28.7189C85.7033 28.4408 85.6321 28.167 85.4958 27.921C85.3642 27.6914 85.1681 27.501 84.9295 27.371C84.6871 27.2428 84.4145 27.1755 84.1371 27.1755C83.8598 27.1755 83.5871 27.2428 83.3447 27.371C83.1081 27.5022 82.9137 27.6924 82.7825 27.921C82.6462 28.167 82.575 28.4408 82.575 28.7189C82.575 28.9969 82.6462 29.2708 82.7825 29.5168C82.9161 29.7449 83.1117 29.9348 83.3488 30.0667H83.3447Z" fill="#8A92A6"/>
<path d="M86.5507 26.6699H87.2718L88.2456 29.3811L88.3963 29.8459H88.433L88.5959 29.3811L89.6144 26.6699H90.3355L88.763 30.7678H88.0785L86.5507 26.6699Z" fill="#8A92A6"/>
<path d="M91.7124 26.6699H92.4661L94.0957 30.7678H93.3665L92.9591 29.7143H91.2032L90.7958 30.7678H90.0665L91.7124 26.6699ZM92.7554 29.1294L92.2746 27.8783L92.1117 27.4058H92.075L91.9121 27.8783L91.4314 29.1294H92.7554Z" fill="#8A92A6"/>
<path d="M97.7665 30.5702C97.5117 30.7136 97.2294 30.8073 96.9361 30.846C96.6428 30.8846 96.3442 30.8674 96.0579 30.7953C95.7717 30.7232 95.5034 30.5976 95.2687 30.426C95.0339 30.2544 94.8375 30.0401 94.6907 29.7956C94.4985 29.4655 94.3976 29.0943 94.3976 28.7169C94.3976 28.3395 94.4985 27.9684 94.6907 27.6382C94.884 27.315 95.1655 27.0473 95.5055 26.8636C95.8518 26.6758 96.2434 26.577 96.6421 26.577C97.0407 26.577 97.4325 26.6758 97.7788 26.8636C98.1183 27.0479 98.3997 27.3154 98.5936 27.6382C98.7858 27.9684 98.8867 28.3395 98.8867 28.7169C98.8867 29.0943 98.7858 29.4655 98.5936 29.7956C98.3963 30.1199 98.1105 30.3875 97.7665 30.5702ZM95.8395 30.0667C96.0806 30.1964 96.3529 30.2645 96.6298 30.2645C96.9068 30.2645 97.1792 30.1964 97.4203 30.0667C97.658 29.9356 97.8537 29.7455 97.9865 29.5167C98.1228 29.2708 98.1941 28.9969 98.1941 28.7188C98.1941 28.4408 98.1228 28.167 97.9865 27.921C97.8549 27.6914 97.6589 27.501 97.4203 27.371C97.1792 27.2413 96.9068 27.1732 96.6298 27.1732C96.3529 27.1732 96.0806 27.2413 95.8395 27.371C95.6009 27.501 95.4049 27.6914 95.2733 27.921C95.137 28.167 95.0657 28.4408 95.0657 28.7188C95.0657 28.9969 95.137 29.2708 95.2733 29.5167C95.4061 29.7455 95.6018 29.9356 95.8395 30.0667Z" fill="#8A92A6"/>
<path d="M99.6202 26.6699H100.407L102.354 29.6794H102.391L102.354 28.9047V26.6854H103.01V30.7832H102.325L100.288 27.6189H100.256L100.288 28.3935V30.7678H99.6325L99.6202 26.6699Z" fill="#8A92A6"/>
</svg>
