<svg width="92" height="57" viewBox="0 0 92 57" fill="none" xmlns="http://www.w3.org/2000/svg">
<path fill-rule="evenodd" clip-rule="evenodd" d="M66.1447 9.27497C61.5663 13.8407 61.5637 21.2349 66.1382 25.7904C70.7128 30.3459 78.1328 30.3382 82.7111 25.7725C87.2895 21.2068 87.2921 13.8126 82.7175 9.25705C78.143 4.70152 70.723 4.70928 66.1447 9.27497ZM65.943 25.985C61.2603 21.3218 61.2634 13.7534 65.9493 9.08045C70.6352 4.40753 78.23 4.39917 82.9127 9.06239C87.5955 13.7256 87.5924 21.2941 82.9065 25.967C78.2205 30.6399 70.6258 30.6483 65.943 25.985Z" fill="url(#paint0_linear_2159_11072)"/>
<path fill-rule="evenodd" clip-rule="evenodd" d="M9.13437 31.8095C4.55439 36.3736 4.54919 43.7678 9.12216 48.3249C13.6951 52.882 21.1151 52.8768 25.6951 48.3127C30.275 43.7486 30.2802 36.3544 25.7073 31.7973C21.1343 27.2402 13.7144 27.2454 9.13437 31.8095ZM8.9269 48.5195C4.24582 43.8546 4.25155 36.2862 8.93911 31.6149C13.6267 26.9436 21.2214 26.9379 25.9025 31.6027C30.5836 36.2676 30.5779 43.836 25.8903 48.5073C21.2028 53.1786 13.608 53.1843 8.9269 48.5195Z" fill="url(#paint1_linear_2159_11072)"/>
<path d="M27.4076 48.4089C32.0413 43.7912 32.0468 36.3099 27.4198 31.6989C22.7927 27.0879 15.2854 27.0934 10.6516 31.7111C6.01783 36.3288 6.01236 43.8101 10.6394 48.4211C15.2664 53.032 22.7738 53.0266 27.4076 48.4089Z" fill="url(#paint2_linear_2159_11072)"/>
<path d="M80.6217 32.7059L67.6257 24.3672V32.7059H80.6217Z" fill="url(#paint3_linear_2159_11072)"/>
<path d="M67.9479 32.7173H5.19153L8.511 13.3684H55.8666C63.7051 13.3684 69.6738 21.343 68.3448 30.083L67.9479 32.7173Z" fill="url(#paint4_linear_2159_11072)"/>
<path d="M5.19153 32.7059L18.4378 39.382V32.7059H5.19153Z" fill="url(#paint5_linear_2159_11072)"/>
<path d="M77.7107 52.0462H30.0876C22.2434 52.0462 16.3495 43.9569 17.8452 35.2513L18.2796 32.7173H80.6217L77.7107 52.0462Z" fill="url(#paint6_linear_2159_11072)"/>
<path style="mix-blend-mode:multiply" opacity="0.84" d="M67.9421 32.7059H18.2825L17.9689 34.529L67.9421 32.7059Z" fill="url(#paint7_linear_2159_11072)"/>
<path d="M16.7818 28.0708C15.8457 28.0708 15.09 27.8796 14.5146 27.4973C13.9468 27.1074 13.6629 26.5416 13.6629 25.7999C13.6629 25.7388 13.6706 25.6317 13.6859 25.4788H16.0682C16.0452 25.7388 16.0989 25.9414 16.2294 26.0866C16.3598 26.2319 16.5593 26.3046 16.8278 26.3046C17.0503 26.3046 17.2268 26.2549 17.3572 26.1555C17.4953 26.0561 17.5644 25.9146 17.5644 25.7311C17.5644 25.517 17.4647 25.3412 17.2652 25.2035C17.0734 25.0659 16.7588 24.9053 16.3214 24.7218C15.8841 24.5383 15.5235 24.3663 15.2396 24.2057C14.9557 24.0375 14.7102 23.812 14.503 23.5291C14.2959 23.2385 14.1923 22.8792 14.1923 22.451C14.1923 21.8928 14.3304 21.415 14.6066 21.0174C14.8828 20.6122 15.2665 20.3063 15.7575 20.0999C16.2562 19.8858 16.824 19.7787 17.4608 19.7787C18.0363 19.7787 18.5465 19.8705 18.9915 20.054C19.4365 20.2299 19.7818 20.486 20.0273 20.8224C20.2805 21.1588 20.4071 21.5564 20.4071 22.0152C20.4071 22.1375 20.4032 22.2293 20.3956 22.2904H17.9672C17.9749 22.2522 17.9787 22.1987 17.9787 22.1299C17.9787 21.9464 17.9212 21.8049 17.8061 21.7055C17.691 21.5985 17.5337 21.545 17.3342 21.545C17.1271 21.545 16.9583 21.5985 16.8278 21.7055C16.7051 21.8049 16.6437 21.9464 16.6437 22.1299C16.6437 22.3287 16.7396 22.5007 16.9314 22.646C17.1309 22.7836 17.4378 22.948 17.8521 23.1391C18.2971 23.3456 18.6616 23.5405 18.9455 23.724C19.237 23.8999 19.4864 24.1369 19.6935 24.4351C19.9007 24.7333 20.0043 25.1003 20.0043 25.5361C20.0043 26.0178 19.8738 26.4536 19.613 26.8436C19.3521 27.2259 18.98 27.5279 18.4966 27.7496C18.0132 27.9637 17.4416 28.0708 16.7818 28.0708Z" fill="#022C61"/>
<path d="M28.0586 22.6001C27.9742 23.0894 27.7823 23.5367 27.4831 23.942C27.1916 24.3395 26.7964 24.6607 26.2977 24.9053C25.799 25.1424 25.2197 25.2609 24.5599 25.2609H23.4435L22.9601 27.9905H20.6929L22.1315 19.9049H25.5036C26.3553 19.9049 27.0036 20.0999 27.4486 20.4898C27.8936 20.8721 28.1161 21.3882 28.1161 22.0381C28.1161 22.1987 28.0969 22.386 28.0586 22.6001ZM24.6635 23.4832C25.3003 23.4832 25.6686 23.1888 25.7683 22.6001C25.7836 22.4931 25.7913 22.4166 25.7913 22.3707C25.7913 22.1643 25.7223 22.0037 25.5842 21.889C25.4537 21.7667 25.2504 21.7055 24.9742 21.7055H24.0765L23.7658 23.4832H24.6635Z" fill="#022C61"/>
<path d="M31.3932 21.6826L31.163 23.0244H33.7525L33.4417 24.7333H30.8522L30.5875 26.2013H33.5223L33.2115 27.9905H28.0096L29.4482 19.9049H34.6386L34.3279 21.6826H31.3932Z" fill="#022C61"/>
<path d="M34.7635 23.9305C34.9016 23.1353 35.1932 22.4281 35.6382 21.8087C36.0832 21.1818 36.6433 20.6963 37.3185 20.3522C37.9937 20.0005 38.7302 19.8246 39.5282 19.8246C40.1957 19.8246 40.7788 19.947 41.2775 20.1916C41.7762 20.4363 42.1637 20.7842 42.4399 21.2353C42.7161 21.6864 42.8658 22.2178 42.8888 22.8295H40.4604C40.3683 22.5313 40.2072 22.3019 39.977 22.1413C39.7469 21.9808 39.463 21.9005 39.1254 21.9005C38.6036 21.9005 38.1548 22.084 37.7788 22.451C37.4029 22.818 37.1612 23.3112 37.0538 23.9305C37.0231 24.0911 37.0078 24.2631 37.0078 24.4466C37.0078 24.9206 37.1305 25.2953 37.376 25.5705C37.6292 25.8381 37.9745 25.972 38.4118 25.972C38.7494 25.972 39.0602 25.8917 39.344 25.7311C39.6356 25.5705 39.8773 25.3412 40.0691 25.043H42.509C42.1407 25.9681 41.5614 26.7021 40.7711 27.245C39.9809 27.7802 39.0793 28.0478 38.0666 28.0478C37.3684 28.0478 36.7622 27.914 36.2482 27.6464C35.7418 27.3788 35.3543 27.0003 35.0858 26.511C34.8172 26.0217 34.683 25.4559 34.683 24.8136C34.683 24.5154 34.7098 24.221 34.7635 23.9305Z" fill="#022C61"/>
<path d="M46.7306 19.9049L45.3035 27.9905H43.0362L44.4748 19.9049H46.7306Z" fill="#022C61"/>
<path d="M51.9512 26.6716H49.074L48.4064 27.9905H46.0356L50.4205 19.9049H53.0215L54.5406 27.9905H52.1583L51.9512 26.6716ZM51.6865 24.9627L51.2837 22.3363L49.9486 24.9627H51.6865Z" fill="#022C61"/>
<path d="M57.8423 26.2816H60.3628L60.052 27.9905H55.2644L56.703 19.9049H58.9587L57.8423 26.2816Z" fill="#022C61"/>
<path d="M16.2554 28.0708C15.3193 28.0708 14.5636 27.8796 13.9881 27.4973C13.4204 27.1074 13.1365 26.5416 13.1365 25.7999C13.1365 25.7388 13.1441 25.6317 13.1595 25.4788H15.5418C15.5188 25.7388 15.5725 25.9414 15.7029 26.0866C15.8334 26.2319 16.0329 26.3046 16.3014 26.3046C16.5239 26.3046 16.7004 26.2549 16.8308 26.1555C16.9689 26.0561 17.038 25.9146 17.038 25.7311C17.038 25.517 16.9382 25.3412 16.7387 25.2035C16.5469 25.0659 16.2323 24.9053 15.795 24.7218C15.3577 24.5383 14.9971 24.3663 14.7132 24.2057C14.4293 24.0375 14.1838 23.812 13.9766 23.5291C13.7695 23.2385 13.6659 22.8792 13.6659 22.451C13.6659 21.8928 13.804 21.415 14.0802 21.0174C14.3564 20.6122 14.74 20.3063 15.2311 20.0999C15.7298 19.8858 16.2976 19.7787 16.9344 19.7787C17.5098 19.7787 18.0201 19.8705 18.4651 20.054C18.9101 20.2299 19.2553 20.486 19.5009 20.8224C19.7541 21.1588 19.8806 21.5564 19.8806 22.0152C19.8806 22.1375 19.8768 22.2293 19.8691 22.2904H17.4408C17.4484 22.2522 17.4523 22.1987 17.4523 22.1299C17.4523 21.9464 17.3947 21.8049 17.2797 21.7055C17.1646 21.5985 17.0073 21.545 16.8078 21.545C16.6006 21.545 16.4318 21.5985 16.3014 21.7055C16.1786 21.8049 16.1173 21.9464 16.1173 22.1299C16.1173 22.3287 16.2132 22.5007 16.405 22.646C16.6045 22.7836 16.9114 22.948 17.3257 23.1391C17.7707 23.3456 18.1351 23.5405 18.419 23.724C18.7106 23.8999 18.9599 24.1369 19.1671 24.4351C19.3743 24.7333 19.4778 25.1003 19.4778 25.5361C19.4778 26.0178 19.3474 26.4536 19.0865 26.8436C18.8257 27.2259 18.4536 27.5279 17.9702 27.7496C17.4868 27.9637 16.9152 28.0708 16.2554 28.0708Z" fill="white"/>
<path d="M27.5321 22.6001C27.4477 23.0894 27.2559 23.5367 26.9567 23.942C26.6651 24.3395 26.27 24.6607 25.7713 24.9053C25.2726 25.1424 24.6933 25.2609 24.0334 25.2609H22.9171L22.4337 27.9905H20.1665L21.6051 19.9049H24.9772C25.8288 19.9049 26.4772 20.0999 26.9222 20.4898C27.3672 20.8721 27.5897 21.3882 27.5897 22.0381C27.5897 22.1987 27.5705 22.386 27.5321 22.6001ZM24.137 23.4832C24.7738 23.4832 25.1421 23.1888 25.2419 22.6001C25.2572 22.4931 25.2649 22.4166 25.2649 22.3707C25.2649 22.1643 25.1958 22.0037 25.0577 21.889C24.9273 21.7667 24.724 21.7055 24.4478 21.7055H23.5501L23.2393 23.4832H24.137Z" fill="white"/>
<path d="M30.8667 21.6826L30.6365 23.0244H33.226L32.9153 24.7333H30.3258L30.0611 26.2013H32.9959L32.6851 27.9905H27.4831L28.9217 19.9049H34.1122L33.8015 21.6826H30.8667Z" fill="white"/>
<path d="M34.2371 23.9305C34.3752 23.1353 34.6668 22.4281 35.1118 21.8087C35.5568 21.1818 36.1169 20.6963 36.7921 20.3522C37.4672 20.0005 38.2038 19.8246 39.0018 19.8246C39.6693 19.8246 40.2524 19.947 40.7511 20.1916C41.2498 20.4363 41.6373 20.7842 41.9135 21.2353C42.1897 21.6864 42.3393 22.2178 42.3623 22.8295H39.934C39.8419 22.5313 39.6808 22.3019 39.4506 22.1413C39.2204 21.9808 38.9365 21.9005 38.5989 21.9005C38.0772 21.9005 37.6284 22.084 37.2524 22.451C36.8765 22.818 36.6348 23.3112 36.5274 23.9305C36.4967 24.0911 36.4813 24.2631 36.4813 24.4466C36.4813 24.9206 36.6041 25.2953 36.8496 25.5705C37.1028 25.8381 37.4481 25.972 37.8854 25.972C38.223 25.972 38.5337 25.8917 38.8176 25.7311C39.1092 25.5705 39.3509 25.3412 39.5427 25.043H41.9825C41.6143 25.9681 41.035 26.7021 40.2447 27.245C39.4544 27.7802 38.5529 28.0478 37.5401 28.0478C36.8419 28.0478 36.2358 27.914 35.7217 27.6464C35.2153 27.3788 34.8279 27.0003 34.5593 26.511C34.2908 26.0217 34.1565 25.4559 34.1565 24.8136C34.1565 24.5154 34.1834 24.221 34.2371 23.9305Z" fill="white"/>
<path d="M46.2041 19.9049L44.777 27.9905H42.5098L43.9484 19.9049H46.2041Z" fill="white"/>
<path d="M51.4247 26.6716H48.5475L47.88 27.9905H45.5092L49.894 19.9049H52.495L54.0142 27.9905H51.6319L51.4247 26.6716ZM51.16 24.9627L50.7572 22.3363L49.4222 24.9627H51.16Z" fill="white"/>
<path d="M57.3159 26.2816H59.8363L59.5256 27.9905H54.7379L56.1765 19.9049H58.4322L57.3159 26.2816Z" fill="white"/>
<path d="M34.6576 47.0916C33.9376 47.0916 33.3025 46.9424 32.7523 46.6441C32.2021 46.3458 31.7774 45.9265 31.478 45.3863C31.1787 44.8461 31.029 44.2253 31.029 43.5239C31.029 42.5161 31.2393 41.6211 31.6601 40.8391C32.0889 40.0489 32.6835 39.4362 33.444 39.0008C34.2126 38.5654 35.0905 38.3477 36.0775 38.3477C36.8138 38.3477 37.457 38.4969 38.0071 38.7952C38.5654 39.0855 38.9942 39.5007 39.2935 40.0409C39.5929 40.573 39.7426 41.1898 39.7426 41.8912C39.7426 42.891 39.5282 43.7859 39.0994 44.5761C38.6706 45.3662 38.0719 45.983 37.3033 46.4264C36.5346 46.8698 35.6528 47.0916 34.6576 47.0916ZM35.0217 44.8905C35.499 44.8905 35.9157 44.7655 36.2717 44.5156C36.6358 44.2656 36.9109 43.9351 37.0969 43.5239C37.2911 43.1046 37.3882 42.6531 37.3882 42.1694C37.3882 41.6534 37.2466 41.2543 36.9634 40.9721C36.6884 40.6819 36.2919 40.5367 35.7741 40.5367C35.2968 40.5367 34.8761 40.6617 34.512 40.9116C34.1479 41.1535 33.8688 41.48 33.6746 41.8912C33.4804 42.3024 33.3834 42.7539 33.3834 43.2457C33.3834 43.7537 33.5249 44.1568 33.8081 44.4551C34.0913 44.7454 34.4958 44.8905 35.0217 44.8905Z" fill="#FDA800"/>
<path d="M47.3895 38.4808L47.0618 40.3674H43.6395L43.3725 41.867H45.8847L45.5691 43.669H43.057L42.4623 47.0069H40.0716L41.5886 38.4808H47.3895Z" fill="#FDA800"/>
<path d="M54.1923 38.4808L53.8646 40.3674H50.4423L50.1753 41.867H52.6874L52.3719 43.669H49.8597L49.2651 47.0069H46.8743L48.3913 38.4808H54.1923Z" fill="#FDA800"/>
<path d="M57.245 40.3553L57.0023 41.7703H59.7329L59.4052 43.5723H56.6746L56.3955 45.1203H59.4901L59.1625 47.0069H53.6771L55.194 38.4808H60.6673L60.3397 40.3553H57.245Z" fill="#FDA800"/>
<path d="M65.5927 38.4808C66.4908 38.4808 67.1744 38.6823 67.6437 39.0855C68.1129 39.4805 68.3476 40.0086 68.3476 40.6698C68.3476 40.8713 68.3314 41.0527 68.299 41.214C68.2019 41.7945 67.9552 42.3065 67.5587 42.7499C67.1623 43.1853 66.6364 43.4957 65.9811 43.6811L67.316 47.0069H64.6704L63.5296 43.8625H63.2747L62.7165 47.0069H60.3257L61.8427 38.4808H65.5927ZM63.566 42.242H64.7432C65.3743 42.242 65.7464 41.9436 65.8597 41.347C65.8759 41.2503 65.884 41.1817 65.884 41.1414C65.884 40.9237 65.8111 40.7544 65.6655 40.6335C65.528 40.5125 65.3217 40.4521 65.0466 40.4521H63.8694L63.566 42.242Z" fill="#FDA800"/>
<path d="M34.0737 47.0916C33.3536 47.0916 32.7185 46.9424 32.1684 46.6441C31.6182 46.3458 31.1934 45.9265 30.8941 45.3863C30.5947 44.8461 30.4451 44.2253 30.4451 43.5239C30.4451 42.5161 30.6554 41.6211 31.0761 40.8391C31.5049 40.0489 32.0996 39.4362 32.8601 39.0008C33.6287 38.5654 34.5066 38.3477 35.4936 38.3477C36.2298 38.3477 36.8731 38.4969 37.4232 38.7952C37.9815 39.0855 38.4103 39.5007 38.7096 40.0409C39.009 40.573 39.1586 41.1898 39.1586 41.8912C39.1586 42.891 38.9442 43.7859 38.5154 44.5761C38.0866 45.3662 37.4879 45.983 36.7193 46.4264C35.9507 46.8698 35.0688 47.0916 34.0737 47.0916ZM34.4378 44.8905C34.9151 44.8905 35.3318 44.7655 35.6878 44.5156C36.0519 44.2656 36.3269 43.9351 36.513 43.5239C36.7072 43.1046 36.8043 42.6531 36.8043 42.1694C36.8043 41.6534 36.6627 41.2543 36.3795 40.9721C36.1044 40.6819 35.708 40.5367 35.1902 40.5367C34.7129 40.5367 34.2922 40.6617 33.9281 40.9116C33.564 41.1535 33.2849 41.48 33.0907 41.8912C32.8965 42.3024 32.7994 42.7539 32.7994 43.2457C32.7994 43.7537 32.941 44.1568 33.2242 44.4551C33.5074 44.7454 33.9119 44.8905 34.4378 44.8905Z" fill="white"/>
<path d="M46.8056 38.4808L46.4779 40.3674H43.0556L42.7886 41.867H45.3007L44.9852 43.669H42.4731L41.8784 47.0069H39.4876L41.0046 38.4808H46.8056Z" fill="white"/>
<path d="M53.6083 38.4808L53.2807 40.3674H49.8583L49.5914 41.867H52.1035L51.788 43.669H49.2758L48.6812 47.0069H46.2904L47.8074 38.4808H53.6083Z" fill="white"/>
<path d="M56.6611 40.3553L56.4184 41.7703H59.1489L58.8213 43.5723H56.0907L55.8116 45.1203H58.9062L58.5786 47.0069H53.0931L54.6101 38.4808H60.0834L59.7557 40.3553H56.6611Z" fill="white"/>
<path d="M65.0088 38.4808C65.9068 38.4808 66.5905 38.6823 67.0598 39.0855C67.529 39.4805 67.7636 40.0086 67.7636 40.6698C67.7636 40.8713 67.7475 41.0527 67.7151 41.214C67.618 41.7945 67.3712 42.3065 66.9748 42.7499C66.5784 43.1853 66.0525 43.4957 65.3971 43.6811L66.7321 47.0069H64.0865L62.9457 43.8625H62.6908L62.1326 47.0069H59.7418L61.2588 38.4808H65.0088ZM62.9821 42.242H64.1593C64.7903 42.242 65.1625 41.9436 65.2758 41.347C65.292 41.2503 65.3 41.1817 65.3 41.1414C65.3 40.9237 65.2272 40.7544 65.0816 40.6335C64.9441 40.5125 64.7378 40.4521 64.4627 40.4521H63.2855L62.9821 42.242Z" fill="white"/>
<path d="M67.9229 55.3628H44.098C43.5283 55.3631 42.964 55.2708 42.4375 55.0909C41.911 54.9111 41.4326 54.6473 41.0296 54.3147C40.6266 53.9821 40.3068 53.5871 40.0887 53.1523C39.8706 52.7176 39.7583 52.2516 39.7583 51.781C39.7579 51.3102 39.8698 50.8439 40.0877 50.4089C40.3057 49.9738 40.6253 49.5785 41.0284 49.2456C41.4315 48.9126 41.91 48.6486 42.4368 48.4686C42.9635 48.2886 43.528 48.1961 44.098 48.1965H67.9229C68.4929 48.1961 69.0574 48.2886 69.5842 48.4686C70.1109 48.6486 70.5895 48.9126 70.9925 49.2456C71.3956 49.5785 71.7152 49.9738 71.9332 50.4089C72.1511 50.8439 72.2631 51.3102 72.2626 51.781C72.2626 52.2516 72.1503 52.7176 71.9322 53.1523C71.7141 53.5871 71.3944 53.9821 70.9913 54.3147C70.5883 54.6473 70.1099 54.9111 69.5834 55.0909C69.0569 55.2708 68.4926 55.3631 67.9229 55.3628Z" fill="url(#paint8_linear_2159_11072)"/>
<path d="M84.8271 34.4573C86.2616 34.4573 87.4246 33.2984 87.4246 31.8689C87.4246 30.4393 86.2616 29.2804 84.8271 29.2804C83.3925 29.2804 82.2296 30.4393 82.2296 31.8689C82.2296 33.2984 83.3925 34.4573 84.8271 34.4573Z" fill="url(#paint9_linear_2159_11072)"/>
<path d="M27.1277 55.0761C27.1277 55.4397 27.0195 55.795 26.8167 56.0973C26.614 56.3995 26.3259 56.635 25.9888 56.774C25.6517 56.913 25.2808 56.9492 24.9231 56.8781C24.5653 56.8069 24.2368 56.6316 23.979 56.3744C23.7213 56.1171 23.5459 55.7895 23.4751 55.4328C23.4043 55.0762 23.4412 54.7067 23.5812 54.371C23.7212 54.0353 23.958 53.7485 24.2615 53.547C24.5651 53.3454 24.9219 53.2381 25.2867 53.2387C25.7752 53.2395 26.2435 53.4334 26.5886 53.7779C26.9338 54.1224 27.1277 54.5893 27.1277 55.0761Z" fill="url(#paint10_linear_2159_11072)"/>
<path d="M81.3919 25.2002C86.0232 20.5801 86.0247 13.0988 81.3953 8.49019C76.7658 3.88163 69.2585 3.89098 64.6271 8.5111C59.9958 13.1312 59.9942 20.6125 64.6237 25.2211C69.2532 29.8297 76.7605 29.8203 81.3919 25.2002Z" fill="url(#paint11_linear_2159_11072)"/>
<path fill-rule="evenodd" clip-rule="evenodd" d="M7.1242 11.9864C7.13679 11.9217 7.19363 11.875 7.25975 11.875H56.0047C56.081 11.875 56.1428 11.9366 56.1428 12.0126C56.1428 12.0886 56.081 12.1502 56.0047 12.1502H7.37361L6.4518 16.886C6.43728 16.9606 6.36483 17.0094 6.28997 16.9949C6.21511 16.9804 6.16619 16.9082 6.18071 16.8336L7.1242 11.9864Z" fill="url(#paint12_linear_2159_11072)"/>
<path fill-rule="evenodd" clip-rule="evenodd" d="M41.8754 10.6967C41.8754 10.6208 41.9372 10.5592 42.0135 10.5592H57.8658C57.9421 10.5592 58.0039 10.6208 58.0039 10.6967C58.0039 10.7726 57.9421 10.8342 57.8658 10.8342H42.0135C41.9372 10.8342 41.8754 10.7726 41.8754 10.6967Z" fill="url(#paint13_linear_2159_11072)"/>
<defs>
<linearGradient id="paint0_linear_2159_11072" x1="62.4332" y1="17.5164" x2="86.426" y2="17.5164" gradientUnits="userSpaceOnUse">
<stop offset="0.11" stop-color="#022C61"/>
<stop offset="0.4" stop-color="#023779"/>
<stop offset="0.71" stop-color="#03418E"/>
<stop offset="0.92" stop-color="#034596"/>
</linearGradient>
<linearGradient id="paint1_linear_2159_11072" x1="328.529" y1="3325.28" x2="2308.17" y2="3325.28" gradientUnits="userSpaceOnUse">
<stop offset="0.11" stop-color="#022C61"/>
<stop offset="0.4" stop-color="#023779"/>
<stop offset="0.71" stop-color="#03418E"/>
<stop offset="0.92" stop-color="#034596"/>
</linearGradient>
<linearGradient id="paint2_linear_2159_11072" x1="7.17026" y1="40.0585" x2="30.8869" y2="40.0585" gradientUnits="userSpaceOnUse">
<stop offset="0.19" stop-color="#21BCF2"/>
<stop offset="0.44" stop-color="#21A4F2"/>
<stop offset="0.79" stop-color="#2189F2"/>
<stop offset="0.99" stop-color="#217FF2"/>
</linearGradient>
<linearGradient id="paint3_linear_2159_11072" x1="3348.72" y1="974.642" x2="3348.72" y2="732.07" gradientUnits="userSpaceOnUse">
<stop offset="0.11" stop-color="#022C61"/>
<stop offset="0.4" stop-color="#023779"/>
<stop offset="0.71" stop-color="#03418E"/>
<stop offset="0.92" stop-color="#034596"/>
</linearGradient>
<linearGradient id="paint4_linear_2159_11072" x1="5.19153" y1="23.0371" x2="68.5203" y2="23.0371" gradientUnits="userSpaceOnUse">
<stop stop-color="#FDA800"/>
<stop offset="0.91" stop-color="#FD6E00"/>
</linearGradient>
<linearGradient id="paint5_linear_2159_11072" x1="480.069" y1="949.001" x2="480.069" y2="793.514" gradientUnits="userSpaceOnUse">
<stop stop-color="#FDA800"/>
<stop offset="0.91" stop-color="#FD6E00"/>
</linearGradient>
<linearGradient id="paint6_linear_2159_11072" x1="3546.78" y1="2887.4" x2="17349" y2="2887.4" gradientUnits="userSpaceOnUse">
<stop offset="0.11" stop-color="#022C61"/>
<stop offset="0.4" stop-color="#023779"/>
<stop offset="0.71" stop-color="#03418E"/>
<stop offset="0.92" stop-color="#034596"/>
</linearGradient>
<linearGradient id="paint7_linear_2159_11072" x1="42.9541" y1="34.529" x2="42.9541" y2="32.7059" gradientUnits="userSpaceOnUse">
<stop stop-opacity="0"/>
<stop offset="1" stop-opacity="0.5"/>
</linearGradient>
<linearGradient id="paint8_linear_2159_11072" x1="3847.64" y1="1348.37" x2="6993.08" y2="1348.37" gradientUnits="userSpaceOnUse">
<stop offset="0.19" stop-color="#21BCF2"/>
<stop offset="0.44" stop-color="#21A4F2"/>
<stop offset="0.79" stop-color="#2189F2"/>
<stop offset="0.99" stop-color="#217FF2"/>
</linearGradient>
<linearGradient id="paint9_linear_2159_11072" x1="2513.06" y1="1183.28" x2="2513.06" y2="1089.78" gradientUnits="userSpaceOnUse">
<stop stop-color="#FDA800"/>
<stop offset="0.91" stop-color="#FD6E00"/>
</linearGradient>
<linearGradient id="paint10_linear_2159_11072" x1="304.735" y1="758.739" x2="351.974" y2="758.739" gradientUnits="userSpaceOnUse">
<stop offset="0.11" stop-color="#022C61"/>
<stop offset="0.4" stop-color="#023779"/>
<stop offset="0.71" stop-color="#03418E"/>
<stop offset="0.92" stop-color="#034596"/>
</linearGradient>
<linearGradient id="paint11_linear_2159_11072" x1="4982.48" y1="1390.74" x2="6939.11" y2="1390.74" gradientUnits="userSpaceOnUse">
<stop offset="0.19" stop-color="#21BCF2"/>
<stop offset="0.44" stop-color="#21A4F2"/>
<stop offset="0.79" stop-color="#2189F2"/>
<stop offset="0.99" stop-color="#217FF2"/>
</linearGradient>
<linearGradient id="paint12_linear_2159_11072" x1="814.25" y1="255.491" x2="9445.13" y2="255.491" gradientUnits="userSpaceOnUse">
<stop offset="0.11" stop-color="#022C61"/>
<stop offset="0.4" stop-color="#023779"/>
<stop offset="0.71" stop-color="#03418E"/>
<stop offset="0.92" stop-color="#034596"/>
</linearGradient>
<linearGradient id="paint13_linear_2159_11072" x1="42.0135" y1="10.8399" x2="57.8658" y2="10.8399" gradientUnits="userSpaceOnUse">
<stop offset="0.11" stop-color="#022C61"/>
<stop offset="0.4" stop-color="#023779"/>
<stop offset="0.71" stop-color="#03418E"/>
<stop offset="0.92" stop-color="#034596"/>
</linearGradient>
</defs>
</svg>
