<svg width="149" height="138" viewBox="0 0 149 138" fill="none" xmlns="http://www.w3.org/2000/svg">
<path d="M0 0.00549316V114.4V137.358L25.8815 114.4H148.627V0.00549316H0Z" fill="#F5F5F5"/>
<path d="M147.86 21.724C147.86 21.9147 115.094 22.0695 74.6897 22.0695C34.2856 22.0695 1.5191 21.9147 1.5191 21.724C1.5191 21.5334 34.2717 21.3785 74.6897 21.3785C115.108 21.3785 147.86 21.5453 147.86 21.724Z" fill="#E0E0E0"/>
<path d="M16.5853 13.2058C16.5881 13.8307 16.3738 14.4423 15.9696 14.963C15.5655 15.4838 14.9896 15.8903 14.315 16.1311C13.6404 16.3718 12.8973 16.4361 12.18 16.3156C11.4626 16.1951 10.8032 15.8954 10.2853 15.4543C9.76733 15.0133 9.41418 14.4508 9.27054 13.838C9.1269 13.2253 9.19923 12.5899 9.47836 12.0123C9.75749 11.4347 10.2309 10.941 10.8385 10.5935C11.4462 10.2461 12.1608 10.0606 12.8919 10.0606C13.8691 10.0606 14.8064 10.3916 15.4986 10.9811C16.1909 11.5706 16.5816 12.3705 16.5853 13.2058Z" fill="#E0E0E0"/>
<path d="M27.4843 13.2058C27.4843 13.8312 27.267 14.4426 26.8599 14.9622C26.4528 15.4819 25.8743 15.8866 25.1978 16.1248C24.5213 16.363 23.7773 16.4242 23.0601 16.3004C22.3429 16.1766 21.6849 15.8736 21.1695 15.4297C20.6541 14.9857 20.3045 14.421 20.1652 13.807C20.0259 13.193 20.103 12.5575 20.3868 11.981C20.6706 11.4046 21.1484 10.9132 21.7594 10.5691C22.3704 10.2251 23.0872 10.044 23.8188 10.0487C24.7935 10.055 25.7258 10.3904 26.4124 10.9818C27.0991 11.5732 27.4843 12.3726 27.4843 13.2058Z" fill="#E0E0E0"/>
<path d="M38.3693 13.2058C38.3693 13.8279 38.1535 14.436 37.7492 14.9532C37.3449 15.4704 36.7702 15.8735 36.0979 16.1116C35.4255 16.3497 34.6858 16.4119 33.972 16.2906C33.2583 16.1692 32.6026 15.8697 32.088 15.4298C31.5735 14.9899 31.223 14.4295 31.0811 13.8194C30.9391 13.2093 31.012 12.5769 31.2905 12.0022C31.569 11.4275 32.0405 10.9363 32.6456 10.5907C33.2507 10.2451 33.9621 10.0606 34.6898 10.0606C35.6645 10.0637 36.5983 10.3961 37.2875 10.9853C37.9768 11.5744 38.3656 12.3726 38.3693 13.2058Z" fill="#E0E0E0"/>
<path d="M53.7281 71.9043H43.8745L42.0487 75.7643H35.3309L45.6027 55.8685H52.0975L62.411 75.7643H55.5539L53.7281 71.9043ZM51.7908 67.7464L48.7943 61.3846L45.8117 67.7464H51.7908Z" fill="#E0E0E0"/>
<path d="M64.2367 55.8685H75.2471C82.9684 55.8685 88.2506 59.7047 88.2506 65.8164C88.2506 71.9281 82.9684 75.7643 75.2471 75.7643H64.2367V55.8685ZM74.9823 71.2729C78.9405 71.2729 81.6025 69.2595 81.6025 65.8164C81.6025 62.3734 78.9405 60.36 74.9823 60.36H70.8011V71.2729H74.9823Z" fill="#E0E0E0"/>
<path d="M90.1044 73.9653L92.2646 69.8075C94.5654 71.0614 97.2296 71.7421 99.958 71.7732C102.676 71.7732 103.749 71.118 103.749 70.153C103.749 66.9959 90.5086 69.3071 90.5086 61.9088C90.5086 58.3347 93.8953 55.4516 100.822 55.4516C103.764 55.4103 106.671 56.0088 109.268 57.191L107.233 61.3727C105.264 60.4128 103.047 59.8847 100.78 59.8358C97.9928 59.8358 97.0312 60.634 97.0312 61.6228C97.0312 64.6727 110.23 62.3972 110.23 69.7241C110.23 73.191 106.843 76.1574 99.9162 76.1574C96.4696 76.2295 93.0689 75.4698 90.1044 73.9653Z" fill="#E0E0E0"/>
</svg>
