<svg width="27" height="7" viewBox="0 0 27 7" fill="none" xmlns="http://www.w3.org/2000/svg">
<path d="M1.50038 4.67902C1.07926 4.67902 0.739261 4.59302 0.480377 4.42103C0.224945 4.2456 0.097229 3.99106 0.097229 3.65739C0.097229 3.62988 0.100681 3.58172 0.107584 3.51292H1.17936C1.16901 3.62988 1.19317 3.72103 1.25185 3.78639C1.31053 3.85174 1.40028 3.88442 1.52109 3.88442C1.62119 3.88442 1.70058 3.86206 1.75926 3.81735C1.8214 3.77263 1.85246 3.70899 1.85246 3.62644C1.85246 3.53012 1.80759 3.45101 1.71784 3.38909C1.63155 3.32717 1.49002 3.25494 1.29327 3.17238C1.09652 3.08983 0.934287 3.01243 0.806571 2.94019C0.678855 2.86452 0.568398 2.76304 0.4752 2.63577C0.382001 2.50506 0.335402 2.34339 0.335402 2.15076C0.335402 1.89965 0.397534 1.68466 0.521799 1.50579C0.646063 1.32348 0.818652 1.18589 1.03957 1.09301C1.26393 0.996698 1.51936 0.94854 1.80586 0.94854C2.06475 0.94854 2.29429 0.989818 2.49449 1.07237C2.6947 1.15149 2.85003 1.26672 2.96048 1.41808C3.07439 1.56943 3.13135 1.7483 3.13135 1.95469C3.13135 2.00972 3.12962 2.051 3.12617 2.07852H2.03368C2.03713 2.06132 2.03886 2.03724 2.03886 2.00628C2.03886 1.92373 2.01297 1.86009 1.96119 1.81537C1.90942 1.76722 1.83865 1.74314 1.74891 1.74314C1.65571 1.74314 1.57977 1.76722 1.52109 1.81537C1.46586 1.86009 1.43825 1.92373 1.43825 2.00628C1.43825 2.09572 1.4814 2.17311 1.56769 2.23847C1.65744 2.30039 1.79551 2.37434 1.9819 2.46034C2.18211 2.55321 2.34607 2.64093 2.47378 2.72348C2.60495 2.8026 2.71713 2.90924 2.81033 3.04339C2.90353 3.17754 2.95013 3.34265 2.95013 3.53872C2.95013 3.75543 2.89145 3.9515 2.77409 4.12693C2.65673 4.29892 2.48932 4.43479 2.27185 4.53455C2.05439 4.63086 1.79723 4.67902 1.50038 4.67902Z" fill="white"/>
<path d="M5.68827 1.7225C5.97132 1.7225 6.19223 1.80333 6.35101 1.96501C6.5098 2.12668 6.58919 2.35198 6.58919 2.64093C6.58919 2.74068 6.57883 2.8456 6.55812 2.95567L6.25782 4.6429H5.24299L5.51741 3.08983C5.52776 3.03823 5.53294 2.99179 5.53294 2.95051C5.53294 2.82668 5.4967 2.73036 5.42421 2.66157C5.35517 2.59277 5.2568 2.55837 5.12908 2.55837C4.98756 2.55837 4.86675 2.60137 4.76664 2.68737C4.66654 2.77336 4.59923 2.89204 4.56472 3.04339L4.27994 4.6429H3.25994L3.93822 0.824707H4.95822L4.72005 2.16108C4.83395 2.03036 4.97375 1.92545 5.13944 1.84633C5.30512 1.76378 5.48807 1.7225 5.68827 1.7225Z" fill="white"/>
<path d="M8.16086 4.67902C7.90888 4.67902 7.68451 4.62914 7.48776 4.52939C7.29446 4.42963 7.1443 4.2886 7.0373 4.10629C6.93029 3.92398 6.87679 3.71071 6.87679 3.46649C6.87679 3.13626 6.95446 2.837 7.10979 2.56869C7.26857 2.30039 7.48603 2.09056 7.76217 1.93921C8.03832 1.78786 8.34725 1.71218 8.68898 1.71218C8.94096 1.71218 9.1636 1.76206 9.3569 1.86181C9.55365 1.96157 9.70553 2.10432 9.81254 2.29007C9.92299 2.47238 9.97822 2.68565 9.97822 2.92987C9.97822 3.26354 9.89883 3.56452 9.74005 3.83283C9.58127 4.09769 9.3638 4.3058 9.08766 4.45715C8.81152 4.60506 8.50258 4.67902 8.16086 4.67902ZM8.31619 3.80703C8.437 3.80703 8.544 3.76919 8.6372 3.69351C8.73385 3.61784 8.80634 3.5198 8.85466 3.39941C8.90644 3.27902 8.93233 3.15518 8.93233 3.02791C8.93233 2.88344 8.89436 2.77336 8.81842 2.69769C8.74593 2.62201 8.65101 2.58417 8.53365 2.58417C8.40938 2.58417 8.30065 2.62201 8.20745 2.69769C8.11771 2.77336 8.04695 2.8714 7.99517 2.99179C7.94684 3.11218 7.92268 3.23774 7.92268 3.36845C7.92268 3.51292 7.95893 3.623 8.03141 3.69867C8.1039 3.77091 8.19882 3.80703 8.31619 3.80703Z" fill="white"/>
<path d="M11.5613 2.15076C11.6648 2.0166 11.796 1.90997 11.9548 1.83085C12.1135 1.75174 12.2913 1.71218 12.4881 1.71218C12.7918 1.71218 13.0352 1.81193 13.2181 2.01144C13.4045 2.21095 13.4977 2.48442 13.4977 2.83184C13.4977 2.94191 13.4874 3.06231 13.4666 3.19302C13.4114 3.49228 13.3096 3.75543 13.1612 3.98246C13.0127 4.20605 12.8332 4.37804 12.6227 4.49843C12.4156 4.61882 12.1964 4.67902 11.9651 4.67902C11.7684 4.67902 11.6044 4.63946 11.4732 4.56035C11.3455 4.48123 11.2523 4.3746 11.1936 4.24044L10.8778 6.02571H9.86298L10.6189 1.7483H11.6337L11.5613 2.15076ZM12.4311 3.19302C12.4415 3.14142 12.4466 3.09155 12.4466 3.04339C12.4466 2.90236 12.4052 2.79228 12.3224 2.71317C12.243 2.63405 12.1394 2.59449 12.0117 2.59449C11.8633 2.59449 11.7269 2.64781 11.6027 2.75444C11.4819 2.86108 11.4059 3.00727 11.3749 3.19302C11.3645 3.24462 11.3593 3.29277 11.3593 3.33749C11.3593 3.48196 11.399 3.59548 11.4784 3.67803C11.5613 3.75715 11.6665 3.79671 11.7943 3.79671C11.9461 3.79671 12.0825 3.74339 12.2033 3.63676C12.3241 3.52668 12.4 3.37877 12.4311 3.19302Z" fill="white"/>
<path d="M17.0851 1.7225C17.3682 1.7225 17.5891 1.80505 17.7479 1.97017C17.9101 2.13184 17.9912 2.35714 17.9912 2.64609C17.9912 2.7424 17.9808 2.8456 17.9601 2.95567L17.6598 4.6429H16.645L16.9194 3.08983C16.9298 3.03823 16.935 2.99179 16.935 2.95051C16.935 2.82668 16.8987 2.73036 16.8262 2.66157C16.7572 2.59277 16.6588 2.55837 16.5311 2.55837C16.3861 2.55837 16.2636 2.60309 16.1635 2.69253C16.0634 2.78196 15.9961 2.9058 15.9616 3.06403L15.682 4.6429H14.662L15.1797 1.7483H16.1945L16.1221 2.16108C16.236 2.03036 16.3758 1.92545 16.5415 1.84633C16.7071 1.76378 16.8884 1.7225 17.0851 1.7225Z" fill="white"/>
<path d="M19.5629 4.67902C19.3109 4.67902 19.0865 4.62914 18.8898 4.52939C18.6965 4.42963 18.5463 4.2886 18.4393 4.10629C18.3323 3.92398 18.2788 3.71071 18.2788 3.46649C18.2788 3.13626 18.3565 2.837 18.5118 2.56869C18.6706 2.30039 18.888 2.09056 19.1642 1.93921C19.4403 1.78786 19.7493 1.71218 20.091 1.71218C20.343 1.71218 20.5656 1.76206 20.7589 1.86181C20.9557 1.96157 21.1075 2.10432 21.2146 2.29007C21.325 2.47238 21.3802 2.68565 21.3802 2.92987C21.3802 3.26354 21.3008 3.56452 21.1421 3.83283C20.9833 4.09769 20.7658 4.3058 20.4897 4.45715C20.2135 4.60506 19.9046 4.67902 19.5629 4.67902ZM19.7182 3.80703C19.839 3.80703 19.946 3.76919 20.0392 3.69351C20.1359 3.61784 20.2084 3.5198 20.2567 3.39941C20.3085 3.27902 20.3343 3.15518 20.3343 3.02791C20.3343 2.88344 20.2964 2.77336 20.2204 2.69769C20.1479 2.62201 20.053 2.58417 19.9357 2.58417C19.8114 2.58417 19.7027 2.62201 19.6095 2.69769C19.5197 2.77336 19.449 2.8714 19.3972 2.99179C19.3489 3.11218 19.3247 3.23774 19.3247 3.36845C19.3247 3.51292 19.3609 3.623 19.4334 3.69867C19.5059 3.77091 19.6008 3.80703 19.7182 3.80703Z" fill="white"/>
<path d="M26.308 1.7483L25.0551 4.6429H23.9211L23.8279 2.8886L23.0979 4.6429H21.9588L21.7362 1.7483H22.751L22.7355 3.66771L23.5069 1.7483H24.5891L24.6926 3.67803L25.3605 1.7483H26.308Z" fill="white"/>
</svg>
