<svg width="45" height="9" viewBox="0 0 45 9" fill="none" xmlns="http://www.w3.org/2000/svg">
<path d="M4.64858 2.09592H5.81289C5.79006 0.967491 4.82796 0.168457 3.406 0.168457C2.00362 0.168457 0.950196 0.957707 0.953457 2.13832C0.953457 3.09716 1.63508 3.64833 2.73416 3.93207L3.49406 4.12775C4.21482 4.31039 4.69098 4.53542 4.69424 5.05398C4.69098 5.62472 4.14959 6.0063 3.36034 6.0063C2.60371 6.0063 2.01666 5.66712 1.96774 4.96592H0.777344C0.826264 6.2933 1.81446 7.04015 3.37013 7.04015C4.97146 7.04015 5.90095 6.24112 5.90421 5.06376C5.90095 3.90598 4.94537 3.37764 3.94087 3.13956L3.31468 2.98301C2.76678 2.85256 2.17321 2.621 2.17973 2.06331C2.18299 1.56106 2.63306 1.19253 3.3897 1.19253C4.11046 1.19253 4.58662 1.52845 4.64858 2.09592Z" fill="white"/>
<path d="M8.11134 4.00382C8.11134 3.2798 8.5614 2.86234 9.19411 2.86234C9.81377 2.86234 10.179 3.25697 10.179 3.93207V6.93905H11.3597V3.74943C11.3597 2.53947 10.6748 1.86437 9.63439 1.86437C8.86471 1.86437 8.37551 2.21333 8.14395 2.78081H8.08524V0.259775H6.93072V6.93905H8.11134V4.00382Z" fill="white"/>
<path d="M14.7482 7.03689C16.2158 7.03689 17.1486 6.00304 17.1486 4.45389C17.1486 2.90148 16.2158 1.86437 14.7482 1.86437C13.2806 1.86437 12.3478 2.90148 12.3478 4.45389C12.3478 6.00304 13.2806 7.03689 14.7482 7.03689ZM14.7547 6.09109C13.9427 6.09109 13.5448 5.36707 13.5448 4.45063C13.5448 3.53418 13.9427 2.80038 14.7547 2.80038C15.5538 2.80038 15.9517 3.53418 15.9517 4.45063C15.9517 5.36707 15.5538 6.09109 14.7547 6.09109Z" fill="white"/>
<path d="M18.1506 8.81759H19.3312V6.1498H19.3802C19.5661 6.51507 19.9542 7.0271 20.8152 7.0271C21.9958 7.0271 22.8796 6.09109 22.8796 4.44084C22.8796 2.77103 21.9697 1.86437 20.8119 1.86437C19.9281 1.86437 19.5595 2.39597 19.3802 2.75798H19.3117V1.92959H18.1506V8.81759ZM19.3084 4.43432C19.3084 3.46243 19.7259 2.83299 20.4858 2.83299C21.2718 2.83299 21.6762 3.50157 21.6762 4.43432C21.6762 5.37359 21.2652 6.05848 20.4858 6.05848C19.7324 6.05848 19.3084 5.40621 19.3084 4.43432Z" fill="white"/>
<path d="M27.0786 6.93905L27.6298 5.29206H30.141L30.6955 6.93905H31.987L29.6323 0.259775H28.1386L25.7871 6.93905H27.0786ZM27.9559 4.32017L28.8593 1.62955H28.9115L29.8149 4.32017H27.9559Z" fill="white"/>
<path d="M32.8667 6.93905H35.5704C37.1 6.93905 37.8501 6.15958 37.8501 5.11921C37.8501 4.10818 37.1326 3.51462 36.4216 3.47874V3.41351C37.0739 3.26023 37.5892 2.80364 37.5892 1.99156C37.5892 0.996843 36.8717 0.259775 35.4236 0.259775H32.8667V6.93905ZM34.0767 5.92803V3.97121H35.4106C36.1574 3.97121 36.6205 4.4278 36.6205 5.02463C36.6205 5.55623 36.2553 5.92803 35.378 5.92803H34.0767ZM34.0767 3.10042V1.25775H35.2997C36.0107 1.25775 36.3792 1.63281 36.3792 2.14811C36.3792 2.73515 35.903 3.10042 35.2736 3.10042H34.0767Z" fill="white"/>
<path d="M44.6199 2.51338C44.4144 1.02946 43.2729 0.168457 41.7923 0.168457C40.0474 0.168457 38.7331 1.44039 38.7331 3.59941C38.7331 5.75517 40.0311 7.03037 41.7923 7.03037C43.3805 7.03037 44.434 6.00304 44.6199 4.72784L43.4001 4.72132C43.2468 5.50405 42.6076 5.94433 41.8086 5.94433C40.7258 5.94433 39.9496 5.13225 39.9496 3.59941C39.9496 2.09266 40.7193 1.25449 41.8118 1.25449C42.6239 1.25449 43.2599 1.71434 43.4001 2.51338H44.6199Z" fill="white"/>
</svg>
