<svg width="74" height="10" viewBox="0 0 74 10" fill="none" xmlns="http://www.w3.org/2000/svg">
<path d="M5.59852 1.93864C5.85948 2.25705 6.17904 2.59946 6.59072 2.59946C7.04265 2.59946 7.42122 2.21765 7.26502 1.79357C6.87421 0.732572 5.74547 0.036499 4.21651 0.036499C2.35352 0.036499 0.954112 1.08597 0.958444 2.65583C0.958444 3.93081 1.86394 4.6637 3.32401 5.04099L4.33349 5.30119C5.29098 5.54404 5.92353 5.84327 5.92786 6.53279C5.92353 7.29171 5.20433 7.79909 4.15586 7.79909C3.44824 7.79909 2.85229 7.57557 2.53879 7.11794C2.30051 6.7701 1.97885 6.4157 1.55722 6.4157C1.10236 6.4157 0.723898 6.80111 0.85944 7.23531C1.24957 8.48506 2.4478 9.17381 4.16885 9.17381C6.29613 9.17381 7.5309 8.11133 7.53524 6.5458C7.5309 5.00629 6.26147 4.30376 4.92705 3.98718L4.0952 3.77902C3.36734 3.60556 2.57881 3.29766 2.58748 2.55609C2.59181 1.88825 3.1897 1.39821 4.19485 1.39821C4.82475 1.39821 5.31402 1.59152 5.59852 1.93864Z" fill="white"/>
<path d="M15.3652 0.157925C14.9214 0.157925 14.5615 0.517747 14.5615 0.96161V5.82592C14.5615 6.94044 13.786 7.73838 12.5686 7.73838C11.3468 7.73838 10.5756 6.94044 10.5756 5.82592V0.96161C10.5756 0.517747 10.2158 0.157925 9.77191 0.157925C9.32804 0.157925 8.96822 0.517748 8.96822 0.961611V5.96036C8.96822 7.86848 10.398 9.17381 12.5686 9.17381C14.7305 9.17381 16.1689 7.86848 16.1689 5.96036V0.96161C16.1689 0.517747 15.8091 0.157925 15.3652 0.157925Z" fill="white"/>
<path d="M17.916 8.23569C17.916 8.67955 18.2758 9.03937 18.7197 9.03937C19.1635 9.03937 19.5234 8.67955 19.5234 8.23569V7.53889C19.5234 6.7102 20.1952 6.03842 21.0238 6.03842H21.2217C23.271 6.03842 24.3715 4.80681 24.3715 3.09817C24.3715 1.40254 23.284 0.157925 21.2434 0.157925C19.4057 0.157925 17.916 1.64765 17.916 3.48531V8.23569ZM21.0051 4.71574C20.1868 4.71574 19.5234 4.05235 19.5234 3.23401V2.97535C19.5234 2.1618 20.1829 1.50229 20.9964 1.50229C22.2009 1.50229 22.7338 2.15278 22.7338 3.09817C22.7338 4.04356 22.2009 4.71574 21.0051 4.71574Z" fill="white"/>
<path d="M25.7676 6.13657C25.7676 7.73975 27.0673 9.03937 28.6704 9.03937H30.8989C31.2713 9.03937 31.5732 8.73746 31.5732 8.36503C31.5732 7.99259 31.2713 7.69068 30.8989 7.69068H28.5871C27.9177 7.69068 27.375 7.148 27.375 6.47858C27.375 5.80917 27.9177 5.26649 28.5871 5.26649H30.5653C30.9377 5.26649 31.2396 4.96458 31.2396 4.59214C31.2396 4.21971 30.9377 3.9178 30.5653 3.9178H28.5806C27.9148 3.9178 27.375 3.37804 27.375 2.71221C27.375 2.04638 27.9148 1.50662 28.5806 1.50662H30.8642C31.2367 1.50662 31.5386 1.20471 31.5386 0.832274C31.5386 0.459841 31.2367 0.157925 30.8642 0.157925H28.6531C27.0595 0.157925 25.7676 1.44979 25.7676 3.04339V6.13657Z" fill="white"/>
<path d="M33.1784 8.23569C33.1784 8.67955 33.5383 9.03937 33.9821 9.03937C34.426 9.03937 34.7858 8.67955 34.7858 8.23569V6.81118C34.7858 6.24548 35.2444 5.78689 35.8101 5.78689C36.1878 5.78689 36.5348 5.99471 36.7131 6.32764L37.9431 8.62456C38.0798 8.87996 38.346 9.03937 38.6357 9.03937C39.232 9.03937 39.611 8.40119 39.3256 7.87761L38.8076 6.9271C38.3986 6.17678 38.8131 5.24476 39.2531 4.51219C39.5048 4.093 39.6339 3.58233 39.6339 2.99843C39.6339 1.3028 38.5421 0.157925 36.5058 0.157925C34.6682 0.157925 33.1784 1.64765 33.1784 3.48531V8.23569ZM36.2675 4.4512C35.4532 4.4512 34.7858 3.79037 34.7858 2.97604C34.7858 2.1625 35.4453 1.50229 36.2589 1.50229C37.459 1.50229 37.9962 2.05304 37.9962 2.99843C37.9962 3.94382 37.459 4.4512 36.2675 4.4512Z" fill="white"/>
<path d="M48.6932 1.93864C48.9541 2.25705 49.2737 2.59946 49.6854 2.59946C50.1373 2.59946 50.5159 2.21765 50.3597 1.79357C49.9689 0.732572 48.8401 0.036499 47.3112 0.036499C45.4482 0.036499 44.0488 1.08597 44.0531 2.65583C44.0531 3.93081 44.9586 4.6637 46.4187 5.04099L47.4282 5.30119C48.3856 5.54404 49.0182 5.84327 49.0225 6.53279C49.0182 7.29171 48.299 7.79909 47.2505 7.79909C46.5429 7.79909 45.9469 7.57557 45.6335 7.11794C45.3952 6.7701 45.0735 6.4157 44.6519 6.4157C44.197 6.4157 43.8186 6.80111 43.9541 7.23531C44.3442 8.48506 45.5425 9.17381 47.2635 9.17381C49.3908 9.17381 50.6256 8.11133 50.6299 6.5458C50.6256 5.00629 49.3561 4.30376 48.0217 3.98718L47.1899 3.77902C46.462 3.60556 45.6735 3.29766 45.6821 2.55609C45.6865 1.88825 46.2844 1.39821 47.2895 1.39821C47.9194 1.39821 48.4087 1.59152 48.6932 1.93864Z" fill="white"/>
<path d="M52.4799 9.03937C52.826 9.03937 53.1334 8.81805 53.2431 8.48977L53.4255 7.94437C53.6441 7.29033 54.2565 6.84937 54.9461 6.84937H55.9723C56.6626 6.84937 57.2758 7.2901 57.4959 7.94437L57.6797 8.49095C57.7899 8.81864 58.097 9.03937 58.4428 9.03937C58.998 9.03937 59.3865 8.49057 59.2021 7.96688L56.7813 1.09352C56.5838 0.53293 56.0542 0.157925 55.4598 0.157925C54.8653 0.157925 54.3355 0.533206 54.1382 1.09409L51.7207 7.96756C51.5365 8.49102 51.925 9.03937 52.4799 9.03937ZM55.4596 5.55705C54.8526 5.55705 54.4245 4.96182 54.6175 4.38638L55.4139 2.01218C55.4205 1.99255 55.4389 1.97932 55.4596 1.97932C55.4803 1.97932 55.4987 1.99255 55.5053 2.01218L56.3017 4.38638C56.4947 4.96183 56.0665 5.55705 55.4596 5.55705Z" fill="white"/>
<path d="M60.7485 6.28171C60.7485 7.80473 61.9832 9.03937 63.5062 9.03937H65.5895C65.9619 9.03937 66.2639 8.73746 66.2639 8.36503C66.2639 7.99259 65.9619 7.69068 65.5895 7.69068H64.3099C63.2307 7.69068 62.3559 6.81585 62.3559 5.7367V0.961612C62.3559 0.517748 61.9961 0.157925 61.5522 0.157925C61.1084 0.157925 60.7485 0.517748 60.7485 0.961611V6.28171Z" fill="white"/>
<path d="M67.6589 6.13657C67.6589 7.73975 68.9586 9.03937 70.5617 9.03937H72.7902C73.1626 9.03937 73.4645 8.73746 73.4645 8.36503C73.4645 7.99259 73.1626 7.69068 72.7902 7.69068H70.4784C69.809 7.69068 69.2663 7.148 69.2663 6.47858C69.2663 5.80917 69.809 5.26649 70.4784 5.26649H72.4566C72.829 5.26649 73.1309 4.96458 73.1309 4.59214C73.1309 4.21971 72.829 3.9178 72.4566 3.9178H70.4719C69.8061 3.9178 69.2663 3.37804 69.2663 2.71221C69.2663 2.04638 69.8061 1.50662 70.4719 1.50662H72.7555C73.128 1.50662 73.4299 1.20471 73.4299 0.832274C73.4299 0.459841 73.128 0.157925 72.7555 0.157925H70.5444C68.9508 0.157925 67.6589 1.44979 67.6589 3.0434V6.13657Z" fill="white"/>
</svg>
